<svg width="58" height="60" viewBox="0 0 58 60" fill="none" xmlns="http://www.w3.org/2000/svg">
<path d="M38.0366 31.2638L39.2848 30.9427C40.1141 30.7292 41.0037 30.2657 41.857 29.6023C42.8566 28.8249 43.6756 27.8657 44.1634 26.9016C44.6598 25.9202 44.7542 25.0427 44.4291 24.4303C43.9928 23.6088 42.8569 23.3563 41.4357 23.8448L41.1622 23.939L41.0983 24.2235C40.6091 26.3991 39.8086 28.3965 38.7189 30.1601L38.0366 31.2638ZM42.0378 24.7501C42.7765 24.5477 43.3646 24.6353 43.518 24.924C43.6325 25.1396 43.6291 25.6626 43.2427 26.4263C42.8232 27.2556 42.1071 28.0899 41.2263 28.7749C40.9153 29.0166 40.6225 29.2113 40.3521 29.3683C41.0801 27.9412 41.645 26.3946 42.0378 24.7501Z" fill="#603813"/>
<path d="M19.1916 32.5955C21.7817 35.7517 25.1673 37.4896 28.7243 37.4896C32.1254 37.4896 35.3848 35.8905 37.9296 32.9801C38.1214 32.9898 38.309 32.9864 38.5055 32.9719C39.8454 32.8733 41.3325 32.2364 42.6937 31.1784C45.6748 28.8599 47.0511 25.469 45.8948 23.2909C45.2838 22.1395 44.0615 21.5681 42.5504 21.6955C42.5812 21.3891 42.606 21.0828 42.6248 20.7796C42.6586 20.2332 42.4768 19.7035 42.126 19.3262C41.8258 19.0036 41.433 18.8258 41.0195 18.8258H16.4288C16.0164 18.8258 15.624 19.0031 15.3242 19.325C14.9724 19.7026 14.7896 20.2336 14.8224 20.7821C15.0935 25.2972 16.645 29.4925 19.1916 32.5955ZM16.0769 20.0407C16.1493 19.9629 16.2692 19.8703 16.4288 19.8703H41.0195C41.1797 19.8703 41.2999 19.9632 41.3724 20.0415C41.5263 20.207 41.6088 20.4587 41.5929 20.7148C41.5616 21.2199 41.5125 21.7344 41.4467 22.2437L41.3522 22.9744L42.0662 22.822C43.4401 22.5287 44.5033 22.8795 44.9835 23.7843C45.8734 25.4607 44.5631 28.4064 42.0628 30.3508C40.8606 31.2854 39.5705 31.8463 38.43 31.9303C38.2027 31.9471 37.9918 31.9447 37.7678 31.9196L37.4954 31.8887L37.3173 32.0994C34.9475 34.9018 31.896 36.4452 28.7241 36.4452C22.0364 36.4452 16.3834 29.5374 15.8543 20.7188C15.8389 20.4604 15.9221 20.2068 16.0769 20.0407Z" fill="#603813"/>
<path d="M18.3945 56.6519C18.6102 56.6536 18.8103 56.74 18.9554 56.8814L19.3494 56.4858C19.1029 56.2441 18.7678 56.0939 18.3987 56.0909C17.6351 56.0851 17.0092 56.7077 17.0035 57.479C16.9976 58.2504 17.614 58.8826 18.3777 58.8884C18.7467 58.8912 19.0839 58.7462 19.3341 58.5082L18.946 58.1102C18.7989 58.2457 18.5974 58.329 18.3819 58.3273C17.9215 58.3238 17.5515 57.9482 17.555 57.4832C17.5587 57.0221 17.9342 56.6485 18.3945 56.6519Z" fill="#603813"/>
<path d="M20.811 56.1094C20.0474 56.1037 19.4214 56.7263 19.4157 57.4977C19.41 58.2691 20.0262 58.9012 20.7898 58.9069C21.5533 58.9129 22.1793 58.2902 22.1851 57.5189C22.191 56.7477 21.5746 56.1154 20.811 56.1094ZM20.7941 58.3498C20.3338 58.3463 19.964 57.967 19.9676 57.502C19.9709 57.0407 20.3465 56.667 20.8069 56.6707C21.2635 56.6742 21.6333 57.0535 21.6299 57.5149C21.6264 57.9799 21.2506 58.3533 20.7941 58.3498Z" fill="#603813"/>
<path d="M22.4312 58.9197L22.9829 58.924L22.9914 57.8056L24.1092 57.8143L24.1136 57.2533L22.9955 57.2447L22.9997 56.6874L24.1177 56.6961L24.1219 56.135L22.4523 56.122L22.4312 58.9197Z" fill="#603813"/>
<path d="M24.357 58.9346L24.9087 58.9388L24.9171 57.8204L26.035 57.8291L26.0393 57.2681L24.9213 57.2595L24.9256 56.7022L26.0435 56.7109L26.0478 56.1498L24.3781 56.137L24.357 58.9346Z" fill="#603813"/>
<path d="M26.2831 58.9493L27.9526 58.9622L27.957 58.4013L26.8389 58.3926L26.8432 57.8354L27.9611 57.844L27.9653 57.2829L26.8474 57.2743L26.8515 56.717L27.9694 56.7257L27.9736 56.1646L26.304 56.1518L26.2831 58.9493Z" fill="#603813"/>
<path d="M28.2088 58.9642L29.8786 58.977L29.8827 58.416L28.7648 58.4074L28.769 57.8502L29.887 57.8588L29.8912 57.2977L28.7733 57.2891L28.7775 56.7318L29.8954 56.7403L29.8997 56.1794L28.2301 56.1666L28.2088 58.9642Z" fill="#603813"/>
<path d="M32.3445 56.7592L33.1228 56.7652L33.1059 59.0019L33.6613 59.0062L33.6781 56.7695L34.4562 56.7756L34.4605 56.2145L32.3488 56.1983L32.3445 56.7592Z" fill="#603813"/>
<path d="M35.9921 56.2262C35.2284 56.2203 34.6026 56.843 34.5969 57.6143C34.591 58.3857 35.2073 59.0178 35.9708 59.0236C36.7345 59.0297 37.3603 58.4069 37.3662 57.6355C37.372 56.8643 36.7556 56.2322 35.9921 56.2262ZM35.9751 58.4665C35.5148 58.463 35.145 58.0837 35.1486 57.6187C35.152 57.1573 35.5276 56.7837 35.9879 56.7874C36.4446 56.791 36.8145 57.1703 36.8109 57.6317C36.8074 58.0965 36.4318 58.4701 35.9751 58.4665Z" fill="#603813"/>
<path d="M40.9336 57.6079L40.3784 57.6035L40.1041 57.6015L40.0998 58.1623L40.7649 58.1674C40.6101 58.3692 40.3677 58.5003 40.0974 58.4982C39.637 58.4946 39.2671 58.1153 39.2707 57.6504C39.2742 57.189 39.6497 56.8153 40.11 56.819C40.3257 56.8207 40.526 56.9072 40.6711 57.0484L41.0649 56.6528C40.8184 56.4109 40.4833 56.2607 40.1142 56.2578C39.3506 56.2519 38.7248 56.8747 38.719 57.6459C38.7131 58.4173 39.3295 59.0494 40.0932 59.0553C40.8567 59.0613 41.4825 58.4386 41.4884 57.6672C41.4886 57.6487 41.4852 57.6302 41.4852 57.6117L40.9336 57.6079Z" fill="#603813"/>
<path d="M43.1405 56.2813C42.3768 56.2753 41.751 56.8982 41.7451 57.6694C41.7393 58.4408 42.3558 59.073 43.1194 59.0788C43.8829 59.0847 44.5089 58.4619 44.5146 57.6906C44.5204 56.9193 43.904 56.2872 43.1405 56.2813ZM43.1235 58.5214C42.6632 58.518 42.2933 58.1386 42.2968 57.6738C42.3002 57.2123 42.6758 56.8387 43.1361 56.8423C43.5928 56.8457 43.9625 57.2253 43.9592 57.6864C43.9556 58.1515 43.5802 58.525 43.1235 58.5214Z" fill="#603813"/>
<path d="M24.7747 34.3376C24.8458 34.3376 24.9101 34.311 24.9598 34.2606C25.009 34.2118 25.0361 34.1471 25.0361 34.0785C25.0361 34.0084 25.0085 33.9403 24.9603 33.8918C24.8631 33.793 24.6998 33.7922 24.5946 33.8916C24.5466 33.94 24.5192 34.0082 24.5192 34.0785C24.5192 34.1472 24.5462 34.2119 24.5946 34.2603C24.6426 34.3088 24.7099 34.3376 24.7747 34.3376Z" fill="#603813"/>
<path d="M26.7618 33.3418C26.833 33.3418 26.8972 33.3151 26.947 33.2651C26.9961 33.2161 27.0232 33.1514 27.0232 33.083C27.0232 33.0129 26.9955 32.9448 26.9474 32.8961C26.8504 32.7973 26.6871 32.7967 26.5819 32.8959C26.5338 32.9444 26.5064 33.0125 26.5064 33.083C26.5064 33.1517 26.5333 33.2164 26.5819 33.2647C26.6296 33.313 26.6969 33.3418 26.7618 33.3418Z" fill="#603813"/>
<path d="M33.7482 31.0493C33.815 31.0493 33.8788 31.0219 33.9246 30.9754C33.9768 30.9301 34.0092 30.8592 34.0092 30.7902C34.0092 30.7261 33.9848 30.6646 33.9317 30.6019C33.8815 30.5545 33.8109 30.5295 33.7372 30.5315C33.669 30.534 33.6066 30.5609 33.5675 30.6038C33.5146 30.6578 33.4867 30.7224 33.4867 30.7903C33.4867 30.8678 33.5259 30.935 33.5625 30.9721C33.6111 31.0211 33.6787 31.0493 33.7482 31.0493Z" fill="#603813"/>
<path d="M31.1981 32.2339C31.2662 32.2339 31.3303 32.2068 31.3782 32.1576C31.4289 32.1063 31.4591 32.0366 31.4591 31.9708C31.4591 31.8988 31.4291 31.8329 31.3782 31.7884C31.2775 31.6868 31.1137 31.6868 31.0137 31.788C30.9644 31.837 30.9373 31.9019 30.9373 31.9708C30.9373 32.0356 30.9664 32.1053 31.0102 32.149C31.0563 32.2029 31.1248 32.2339 31.1981 32.2339Z" fill="#603813"/>
<path d="M32.916 33.8516C32.9781 33.8516 33.0443 33.8249 33.1017 33.7749C33.1499 33.7262 33.1775 33.6581 33.1775 33.588C33.1775 33.5147 33.1477 33.4455 33.1032 33.408C33.0579 33.3587 32.9944 33.3309 32.9245 33.3296C32.8552 33.3262 32.7874 33.3543 32.7445 33.3979C32.6911 33.4444 32.6607 33.5139 32.6607 33.588C32.6607 33.6609 32.6902 33.73 32.7361 33.7698C32.7867 33.8211 32.8541 33.8516 32.916 33.8516Z" fill="#603813"/>
<path d="M33.7533 31.7122C33.6824 31.7082 33.616 31.7369 33.5732 31.7806C33.5199 31.8272 33.4894 31.8966 33.4894 31.9707C33.4894 32.0436 33.519 32.1128 33.5647 32.1525C33.6156 32.2038 33.6829 32.2343 33.7448 32.2343C33.8069 32.2343 33.8732 32.2077 33.9305 32.1576C33.9787 32.1088 34.0063 32.0407 34.0063 31.9707C34.0063 31.8976 33.9765 31.8282 33.932 31.7906C33.8866 31.7413 33.8232 31.7134 33.7533 31.7122Z" fill="#603813"/>
<path d="M28.9438 34.5321C29.0139 34.5321 29.0814 34.5039 29.1284 34.4557C29.1769 34.4075 29.2048 34.339 29.2048 34.268C29.2048 34.2022 29.1763 34.1343 29.1288 34.0862C29.0358 33.9923 28.8568 33.9924 28.7639 34.0861C28.7149 34.1357 28.6879 34.2002 28.6879 34.2679C28.6879 34.3411 28.7144 34.4059 28.7636 34.4549C28.8104 34.5033 28.8779 34.5321 28.9438 34.5321Z" fill="#603813"/>
<path d="M27.4066 35.6241C27.4734 35.6241 27.5374 35.597 27.5868 35.547C27.6344 35.4981 27.6618 35.43 27.6618 35.3605C27.6618 35.2951 27.6369 35.2264 27.5899 35.1722C27.4868 35.0745 27.3177 35.0751 27.2214 35.1734C27.1758 35.2187 27.1507 35.2853 27.1507 35.3605C27.1507 35.4309 27.1735 35.4928 27.2243 35.5503C27.2793 35.5993 27.3408 35.6241 27.4066 35.6241Z" fill="#603813"/>
<path d="M28.9914 35.3705C28.9458 35.4158 28.9207 35.4824 28.9207 35.5576C28.9207 35.628 28.9433 35.6899 28.994 35.7474C29.0493 35.7965 29.1106 35.8213 29.1764 35.8213C29.2436 35.8213 29.3075 35.7942 29.3568 35.7443C29.4046 35.6951 29.432 35.6272 29.432 35.5577C29.432 35.4924 29.407 35.424 29.3601 35.3694C29.2568 35.2716 29.0878 35.2722 28.9914 35.3705Z" fill="#603813"/>
<path d="M31.0074 35.4269C31.0745 35.4269 31.1383 35.3997 31.1876 35.3498C31.2354 35.3008 31.2628 35.2327 31.2628 35.1633C31.2628 35.0981 31.2378 35.0295 31.1909 34.975C31.0876 34.8773 30.9186 34.8782 30.8222 34.9762C30.7766 35.0215 30.7515 35.0881 30.7515 35.1634C30.7515 35.234 30.7741 35.2957 30.8248 35.3532C30.8803 35.402 30.9416 35.4269 31.0074 35.4269Z" fill="#603813"/>
<path d="M31.3303 33.3935C31.3303 33.4638 31.3529 33.5259 31.4036 33.5834C31.4588 33.6323 31.5202 33.6573 31.586 33.6573C31.6532 33.6573 31.717 33.63 31.7663 33.5803C31.8142 33.5314 31.8416 33.4633 31.8416 33.3937C31.8416 33.3282 31.8165 33.2597 31.7697 33.2053C31.6663 33.1076 31.4974 33.1084 31.401 33.2065C31.3552 33.2517 31.3303 33.3182 31.3303 33.3935Z" fill="#603813"/>
<path d="M36.4269 28.4175C36.4947 28.4175 36.5587 28.3902 36.6035 28.344C36.6539 28.2999 36.6828 28.2324 36.6828 28.1589C36.6828 28.0885 36.6553 28.0203 36.6069 27.9716C36.5593 27.9232 36.4893 27.8958 36.4174 27.8976C36.3478 27.8989 36.2832 27.9265 36.2421 27.9714C36.1937 28.0201 36.166 28.0885 36.166 28.1589C36.166 28.2253 36.1945 28.2934 36.2416 28.3403C36.2895 28.3896 36.357 28.4175 36.4269 28.4175Z" fill="#603813"/>
<path d="M36.2331 30.6617C36.3012 30.6617 36.3653 30.6346 36.416 30.5825C36.4644 30.5268 36.489 30.4648 36.489 30.3986C36.489 30.3251 36.4591 30.2556 36.4146 30.2179C36.3693 30.1689 36.3058 30.1412 36.2361 30.1399C36.1633 30.1396 36.0992 30.1647 36.0535 30.2109C36.0027 30.2616 35.9721 30.3319 35.9721 30.3986C35.9721 30.4664 35.9991 30.5309 36.045 30.5768C36.0911 30.6309 36.1598 30.6617 36.2331 30.6617Z" fill="#603813"/>
<path d="M35.3405 32.9523C35.408 32.9523 35.4721 32.9247 35.5135 32.8813C35.5687 32.8398 35.6015 32.7694 35.6015 32.6933C35.6015 32.6234 35.5739 32.5551 35.5242 32.505C35.4743 32.4577 35.4017 32.4322 35.3305 32.4345C35.2623 32.437 35.1997 32.4637 35.1606 32.5063C35.1124 32.5551 35.0848 32.6234 35.0848 32.6933C35.0848 32.7616 35.1117 32.831 35.155 32.8751C35.2037 32.9241 35.2713 32.9523 35.3405 32.9523Z" fill="#603813"/>
<path d="M37.9079 24.3693C37.9754 24.3693 38.0395 24.3417 38.0809 24.2983C38.1361 24.2567 38.1689 24.1864 38.1689 24.1102C38.1689 24.0402 38.1413 23.9721 38.0916 23.9219C38.0417 23.8745 37.9699 23.8489 37.8979 23.8513C37.8297 23.8537 37.7671 23.8806 37.728 23.9233C37.6798 23.9721 37.6522 24.0402 37.6522 24.1102C37.6522 24.1784 37.6792 24.2479 37.7224 24.292C37.7711 24.3411 37.8388 24.3693 37.9079 24.3693Z" fill="#603813"/>
<path d="M39.3745 25.6685C39.4419 25.6685 39.5059 25.6414 39.5546 25.5922C39.6028 25.5436 39.6304 25.4755 39.6304 25.4054C39.6304 25.3365 39.6034 25.2716 39.5559 25.2247C39.5105 25.1755 39.4436 25.1473 39.3725 25.1473H39.3722C39.3001 25.1475 39.2327 25.1757 39.1894 25.2228C39.1406 25.2715 39.1136 25.3364 39.1136 25.4054C39.1136 25.4782 39.1431 25.5474 39.1833 25.5804C39.225 25.6363 39.2947 25.6685 39.3745 25.6685Z" fill="#603813"/>
<path d="M38.8322 27.8047C38.897 27.8047 38.9609 27.7756 39.0122 27.7229C39.0612 27.6736 39.0883 27.6089 39.0883 27.5411C39.0883 27.4679 39.0583 27.3986 39.014 27.3612C38.9697 27.313 38.9065 27.2857 38.8359 27.2846C38.7648 27.28 38.6962 27.3094 38.6528 27.3539C38.6018 27.4046 38.5714 27.4746 38.5714 27.541C38.5714 27.6137 38.6012 27.6829 38.6472 27.7226C38.6971 27.7741 38.7665 27.8047 38.8322 27.8047Z" fill="#603813"/>
<path d="M30.2622 6.15914C30.0441 6.43276 29.8202 6.67987 29.5438 6.92576C29.2653 7.18397 28.963 7.44665 28.6458 7.72104C28.0246 8.27752 27.3323 8.91071 26.8123 9.78548C26.2851 10.6529 26.0546 11.7643 26.1991 12.7381C26.3248 13.7249 26.736 14.5969 27.2711 15.3184C27.8183 16.0344 28.4788 16.633 29.2419 17.0292C28.3331 15.5963 27.7407 14.0421 27.823 12.6571C27.8673 11.9679 28.0779 11.3831 28.4606 10.8585C28.8415 10.3275 29.3921 9.82985 30.0085 9.29078C31.1971 8.27566 32.8699 6.64321 32.6584 4.36138C32.5921 3.80798 32.3624 3.25751 32.0138 2.85125C31.6681 2.44067 31.2533 2.16351 30.856 1.96338C30.0479 1.56636 29.2932 1.37208 28.5625 0.921141C28.9655 1.70332 29.736 2.24038 30.2747 2.79763C30.8481 3.35164 31.1056 3.90057 31.0407 4.45335C30.9973 5.00798 30.6891 5.61807 30.2622 6.15914Z" fill="#603813"/>
<path d="M24.7208 15.8738C24.0402 14.9491 23.5453 13.9373 23.4208 12.9097C23.2967 11.8838 23.6119 10.9045 24.2759 10.1557C24.9625 9.38046 25.8986 8.62617 26.5586 7.61243C26.8871 7.11096 27.1775 6.50949 27.163 5.84271C27.1336 5.1656 26.7104 4.6253 26.2325 4.32519C26.5636 4.8017 26.7625 5.33044 26.6589 5.81281C26.567 6.29549 26.2571 6.72179 25.9184 7.12174C25.2112 7.92842 24.3335 8.57071 23.4969 9.46967C23.0922 9.95435 22.7664 10.5336 22.61 11.1651C22.465 11.7965 22.4601 12.4602 22.6286 13.0641C22.9446 14.2806 23.7484 15.2675 24.7208 15.8738Z" fill="#603813"/>
<path d="M31.263 10.902C30.9549 11.3745 30.7497 11.9302 30.6996 12.4976C30.6559 13.0636 30.7267 13.6286 30.9206 14.1342C31.2917 15.1498 32.0072 15.9699 32.8693 16.4783C32.3023 15.6542 31.8711 14.7901 31.696 13.909C31.5182 13.0271 31.665 12.1724 32.1249 11.4779C32.5866 10.7813 33.3685 10.1679 34.0405 9.39692C34.3784 9.01284 34.6916 8.56575 34.8717 8.05241C35.047 7.53799 35.0491 6.97289 34.8653 6.50253C34.8025 7.54046 34.1946 8.22542 33.4768 8.8181C32.7678 9.42865 31.9079 9.95848 31.263 10.902Z" fill="#603813"/>
<path d="M4.15124 46.231L6.30674 45.5835L5.84948 44.0298L0 45.7861L0.45726 47.3401L2.61276 46.6929L4.43595 52.8881L5.97411 52.4262L4.15124 46.231Z" fill="#603813"/>
<path d="M11.2742 51.0167L10.6096 47.8558L13.4599 47.2441L14.1245 50.405L15.6838 50.0704L14.021 42.1631L12.4617 42.4977L13.1264 45.6587L10.276 46.2701L9.6114 43.1092L8.05212 43.4438L9.71493 51.3513L11.2742 51.0167Z" fill="#603813"/>
<path d="M20.9735 41.0912L16.1951 41.7703L17.3104 49.7765L22.0886 49.0974L21.8651 47.4921L18.6655 47.9467L18.4434 46.3518L21.6429 45.897L21.4192 44.2917L18.2198 44.7463L17.9976 43.1513L21.1972 42.6967L20.9735 41.0912Z" fill="#603813"/>
<path d="M31.7459 42.0007C32.3688 41.9918 32.9529 42.2284 33.3807 42.6276L34.4938 41.4598C33.7662 40.777 32.7889 40.3646 31.723 40.38C29.5169 40.4119 27.7481 42.2505 27.7797 44.479C27.8111 46.7075 29.6314 48.4942 31.8376 48.4623C32.9037 48.4469 33.8688 48.0063 34.5767 47.3028L33.4311 46.1783C33.0143 46.579 32.4374 46.8326 31.8145 46.8417C30.4846 46.861 29.3926 45.7996 29.3735 44.456C29.3547 43.1231 30.4161 42.0198 31.7459 42.0007Z" fill="#603813"/>
<path d="M39.4921 40.6261L35.863 48.4012L37.5552 48.5619L38.574 46.3877L41.023 46.6202L41.6231 48.9481L43.3153 49.109L41.1842 40.7869L39.4921 40.6261ZM39.3025 44.8288L40.1127 43.0738L40.5955 44.9516L39.3025 44.8288Z" fill="#603813"/>
<path d="M46.226 49.6689L46.8829 46.506L50.0452 47.176L50.3746 45.5893L47.2124 44.9193L47.5398 43.3428L50.702 44.013L51.0315 42.4263L46.3088 41.4255L44.6656 49.3383L46.226 49.6689Z" fill="#603813"/>
<path d="M57.5006 46.0808L58 44.5405L53.4153 43.024L50.9253 50.7055L55.5099 52.2221L56.0092 50.6816L52.9394 49.6662L53.4356 48.136L56.5052 49.1515L57.0045 47.611L53.9348 46.5957L54.4308 45.0654L57.5006 46.0808Z" fill="#603813"/>
<path d="M20.535 51.6819C10.9508 53.0676 4.71288 55.7819 4.4519 55.8966L4.9791 57.1188C5.0418 57.0912 11.3464 54.3515 20.7649 52.9953C29.4367 51.7468 42.6032 51.4493 56.0827 57.1228L56.5902 55.8925C42.8175 50.0954 29.3812 50.4032 20.535 51.6819Z" fill="#603813"/>
</svg>
