<?xml version="1.0" encoding="UTF-8"?>
<svg version="1.1" xmlns="http://www.w3.org/2000/svg" width="1200" height="600">
<path d="M0 0 C396 0 792 0 1200 0 C1200 198 1200 396 1200 600 C804 600 408 600 0 600 C0 402 0 204 0 0 Z " fill="#FEFEFE" transform="translate(0,0)"/>
<path d="M0 0 C1.6875 0.875 1.6875 0.875 2.6875 1.875 C3.52702308 8.04067772 2.24865362 12.25838978 -0.48828125 17.72265625 C-1.78173698 21.10035343 -1.19315383 23.42577249 -0.3125 26.875 C1.3375 27.205 2.9875 27.535 4.6875 27.875 C4.666875 28.82375 4.64625 29.7725 4.625 30.75 C4.46198174 33.78166283 4.46198174 33.78166283 5.6875 35.875 C7.6675 35.38 7.6675 35.38 9.6875 34.875 C10.6875 37.875 10.6875 37.875 10.03125 39.75390625 C9.4256186 42.03270142 9.4256186 42.03270142 11.15625 44.27734375 C12.5091463 45.9658624 13.86331135 47.65336527 15.21875 49.33984375 C16.6875 51.875 16.6875 51.875 16.40625 54.69140625 C16.1690625 55.41199219 15.931875 56.13257813 15.6875 56.875 C11.38047601 56.875 9.13600716 54.35525934 5.9375 51.75 C5.30932373 51.24807129 4.68114746 50.74614258 4.03393555 50.22900391 C0.79884155 47.63236559 -2.38149432 44.98623724 -5.5 42.25 C-8.13314001 39.72897289 -8.13314001 39.72897289 -11.3125 38.875 C-11.68375 40.1125 -12.055 41.35 -12.4375 42.625 C-14.10432651 47.74685038 -16.56895489 52.29540906 -19.203125 56.98046875 C-20.54699304 60.48682866 -20.35561926 62.29719844 -19.3125 65.875 C-18.14816903 67.89581015 -18.14816903 67.89581015 -16.6875 69.5625 C-15.2734375 71.26171875 -15.2734375 71.26171875 -14.3125 72.875 C-14.8075 74.36 -14.8075 74.36 -15.3125 75.875 C-18.24066452 74.54517856 -20.31476973 73.02226722 -22.6875 70.875 C-28.16401187 66.606236 -34.59003887 66.42261622 -41.3125 65.875 C-41.3125 64.555 -41.3125 63.235 -41.3125 61.875 C-37.0225 61.215 -32.7325 60.555 -28.3125 59.875 C-27.94125 58.555 -27.57 57.235 -27.1875 55.875 C-24.95831463 48.40130604 -22.10264817 41.15286223 -19.3125 33.875 C-20.29347656 33.82601562 -21.27445313 33.77703125 -22.28515625 33.7265625 C-31.71285226 33.21730696 -40.97144218 32.25736919 -50.3125 30.875 C-49.6525 28.895 -48.9925 26.915 -48.3125 24.875 C-41.3825 23.885 -41.3825 23.885 -34.3125 22.875 C-33.9825 21.555 -33.6525 20.235 -33.3125 18.875 C-31.9925 18.875 -30.6725 18.875 -29.3125 18.875 C-28.9825 19.535 -28.6525 20.195 -28.3125 20.875 C-25.03476496 20.12349977 -25.03476496 20.12349977 -23.3125 16.875 C-22.3225 17.205 -21.3325 17.535 -20.3125 17.875 C-20.3125 18.535 -20.3125 19.195 -20.3125 19.875 C-16.51088201 19.65837057 -16.51088201 19.65837057 -13.3125 17.875 C-11.77399683 14.66612195 -10.69740802 11.40628107 -9.5625 8.03515625 C-7.80995551 3.60450472 -5.29260396 -0.2860867 0 0 Z " fill="#6E3DC3" transform="translate(1162.3125,139.125)"/>
<path d="M0 0 C5.61 0 11.22 0 17 0 C17 1.65 17 3.3 17 5 C11.39 5 5.78 5 0 5 C0 3.35 0 1.7 0 0 Z " fill="#8359CC" transform="translate(699,268)"/>
<path d="M0 0 C3.45201639 1.47721422 5.64961936 3.43794001 8.25 6.125 C8.95640625 6.84945313 9.6628125 7.57390625 10.390625 8.3203125 C11.18726563 9.15175781 11.18726563 9.15175781 12 10 C11.34 11.32 10.68 12.64 10 14 C6.54798361 12.52278578 4.35038064 10.56205999 1.75 7.875 C1.04359375 7.15054687 0.3371875 6.42609375 -0.390625 5.6796875 C-1.18726563 4.84824219 -1.18726563 4.84824219 -2 4 C-1.34 2.68 -0.68 1.36 0 0 Z " fill="#784AC7" transform="translate(840,344)"/>
<path d="M0 0 C5.852795 0.51482919 11.3297637 1.45357192 17 3 C16.67 4.65 16.34 6.3 16 8 C10.72 7.01 5.44 6.02 0 5 C0 3.35 0 1.7 0 0 Z " fill="#7C50C9" transform="translate(726,270)"/>
<path d="M0 0 C1.32 0.66 2.64 1.32 4 2 C2.48446596 5.47775179 0.4226544 7.9557984 -2.125 10.75 C-3.21167969 11.94882812 -3.21167969 11.94882812 -4.3203125 13.171875 C-4.87460938 13.77515625 -5.42890625 14.3784375 -6 15 C-7.32 14.34 -8.64 13.68 -10 13 C-10 12.34 -10 11.68 -10 11 C-9.34 11 -8.68 11 -8 11 C-7.73445313 10.41734375 -7.46890625 9.8346875 -7.1953125 9.234375 C-5.96697004 6.93825772 -4.59685061 5.19643982 -2.875 3.25 C-2.33617187 2.63640625 -1.79734375 2.0228125 -1.2421875 1.390625 C-0.62730469 0.70226562 -0.62730469 0.70226562 0 0 Z " fill="#784BC7" transform="translate(1056,340)"/>
<path d="M0 0 C5.81261371 1.73982995 10.83169994 3.8110489 16 7 C15.34 8.32 14.68 9.64 14 11 C6.575 8.03 6.575 8.03 -1 5 C-0.67 3.35 -0.34 1.7 0 0 Z " fill="#784AC7" transform="translate(753,277)"/>
<path d="M0 0 C5.64913063 1.65707832 10.26300637 3.47762012 15 7 C14.67 8.32 14.34 9.64 14 11 C6.5 8 6.5 8 -1 5 C-0.67 3.35 -0.34 1.7 0 0 Z " fill="#7648C7" transform="translate(221,213)"/>
<path d="M0 0 C1.32 0.99 2.64 1.98 4 3 C1.36 7.29 -1.28 11.58 -4 16 C-5.32 15.67 -6.64 15.34 -8 15 C-6.51194289 9.19657726 -3.40902445 4.82409121 0 0 Z " fill="#7445C6" transform="translate(35,375)"/>
<path d="M0 0 C1.32 0.33 2.64 0.66 4 1 C2.57298983 4.13659662 0.85240215 6.62380533 -1.375 9.25 C-1.96023437 9.95640625 -2.54546875 10.6628125 -3.1484375 11.390625 C-5 13 -5 13 -9 13 C-9 8.86218946 -7.28490393 7.79080004 -4.5 4.8125 C-3.6646875 3.91144531 -2.829375 3.01039063 -1.96875 2.08203125 C-0.99421875 1.05142578 -0.99421875 1.05142578 0 0 Z " fill="#7446C6" transform="translate(115,265)"/>
<path d="M0 0 C0 0.99 0 1.98 0 3 C-1.91512272 3.50588147 -3.83216922 4.00448391 -5.75 4.5 C-7.35101563 4.91765625 -7.35101563 4.91765625 -8.984375 5.34375 C-12 6 -12 6 -16 6 C-16 4.35 -16 2.7 -16 1 C-14.27327966 0.63409254 -12.54346345 0.28277805 -10.8125 -0.0625 C-9.36810547 -0.35833984 -9.36810547 -0.35833984 -7.89453125 -0.66015625 C-4.96389138 -1.00423947 -2.83692932 -0.74164697 0 0 Z " fill="#7547C6" transform="translate(424,458)"/>
<path d="M0 0 C0.33 1.32 0.66 2.64 1 4 C-3.0903084 7.73936478 -6.86782097 10.74684823 -12 13 C-12.66 11.68 -13.32 10.36 -14 9 C-12.04594482 7.49412261 -10.08718716 5.99521356 -8.125 4.5 C-7.56941406 4.07074219 -7.01382812 3.64148438 -6.44140625 3.19921875 C-2.2265625 0 -2.2265625 0 0 0 Z " fill="#7344C5" transform="translate(471,430)"/>
<path d="M0 0 C4.47014404 2.50328066 8.76946537 5.1108544 13 8 C12.67 9.65 12.34 11.3 12 13 C8.65291949 11.45158425 5.75332488 9.50894136 2.75 7.375 C1.85796875 6.74335938 0.9659375 6.11171875 0.046875 5.4609375 C-0.96632813 4.73777344 -0.96632813 4.73777344 -2 4 C-1.34 2.68 -0.68 1.36 0 0 Z " fill="#7547C6" transform="translate(880,381)"/>
<path d="M0 0 C3 1 3 1 4.60546875 4.16015625 C5.14390274 5.45638622 5.67083429 6.75744068 6.1875 8.0625 C6.46013672 8.72572266 6.73277344 9.38894531 7.01367188 10.07226562 C7.6856086 11.71084817 8.34409628 13.35493403 9 15 C7.35 15.33 5.7 15.66 4 16 C2.99539469 13.87717331 1.99644398 11.75166979 1 9.625 C0.443125 8.44164062 -0.11375 7.25828125 -0.6875 6.0390625 C-2 3 -2 3 -2 1 C-1.34 0.67 -0.68 0.34 0 0 Z " fill="#7445C6" transform="translate(312,377)"/>
<path d="M0 0 C2.32421875 0.12890625 2.32421875 0.12890625 5 1 C6.58203125 3.65234375 6.58203125 3.65234375 7.8125 6.9375 C8.23144531 8.01902344 8.65039062 9.10054688 9.08203125 10.21484375 C10 13 10 13 10 15 C8.68 15.33 7.36 15.66 6 16 C4.99303432 13.89915791 3.9946411 11.79420511 3 9.6875 C2.443125 8.51574219 1.88625 7.34398437 1.3125 6.13671875 C0 3 0 3 0 0 Z " fill="#7547C6" transform="translate(300,352)"/>
<path d="M0 0 C1.32 0.66 2.64 1.32 4 2 C0.49925018 6.17443363 -2.97950843 10.3145494 -7 14 C-7.66 14 -8.32 14 -9 14 C-9.66 12.68 -10.32 11.36 -11 10 C-5.555 5.05 -5.555 5.05 0 0 Z " fill="#7344C5" transform="translate(568,336)"/>
<path d="M0 0 C0.99 0.66 1.98 1.32 3 2 C1.6744419 5.62276315 0.05653045 8.63505348 -2.125 11.8125 C-2.93324219 12.99779297 -2.93324219 12.99779297 -3.7578125 14.20703125 C-4.16773438 14.79871094 -4.57765625 15.39039063 -5 16 C-6.32 15.34 -7.64 14.68 -9 14 C-6.34151874 8.99900452 -3.74123976 4.2954975 0 0 Z " fill="#7345C5" transform="translate(65,329)"/>
<path d="M0 0 C0.99 0.66 1.98 1.32 3 2 C1.49392117 6.10088936 -0.96188878 7.53509554 -4.625 9.75 C-6.12933594 10.67039062 -6.12933594 10.67039062 -7.6640625 11.609375 C-8.43492187 12.06828125 -9.20578125 12.5271875 -10 13 C-10.66 11.68 -11.32 10.36 -12 9 C-8.04 6.03 -4.08 3.06 0 0 Z " fill="#7345C6" transform="translate(611,301)"/>
<path d="M0 0 C3.92005939 1.30668646 4.28032042 2.78667695 6.1875 6.375 C6.71730469 7.35210937 7.24710937 8.32921875 7.79296875 9.3359375 C9 12 9 12 9 15 C7.68 15.33 6.36 15.66 5 16 C3.82823482 13.87767021 2.66245215 11.75242209 1.5 9.625 C1.16613281 9.02171875 0.83226562 8.4184375 0.48828125 7.796875 C-2 3.2265625 -2 3.2265625 -2 1 C-1.34 0.67 -0.68 0.34 0 0 Z " fill="#7546C6" transform="translate(261,250)"/>
<path d="M0 0 C0.33 1.32 0.66 2.64 1 4 C-3.95 6.31 -8.9 8.62 -14 11 C-14.66 9.68 -15.32 8.36 -16 7 C-13.71070947 5.82845707 -11.41881638 4.66261926 -9.125 3.5 C-8.47402344 3.16613281 -7.82304687 2.83226562 -7.15234375 2.48828125 C-2.2265625 0 -2.2265625 0 0 0 Z " fill="#774AC7" transform="translate(183,215)"/>
<path d="M0 0 C-0.08984375 1.796875 -0.08984375 1.796875 -1 4 C-3.94140625 5.703125 -3.94140625 5.703125 -7.5625 7.25 C-8.76003906 7.77078125 -9.95757812 8.2915625 -11.19140625 8.828125 C-12.58166016 9.40820312 -12.58166016 9.40820312 -14 10 C-14.33 8.35 -14.66 6.7 -15 5 C-13.06891037 3.96709159 -11.129882 2.94901328 -9.1875 1.9375 C-8.10855469 1.36902344 -7.02960938 0.80054688 -5.91796875 0.21484375 C-3 -1 -3 -1 0 0 Z " fill="#7445C6" transform="translate(449,447)"/>
<path d="M0 0 C0.99 0 1.98 0 3 0 C5.04296875 2.046875 5.04296875 2.046875 7.1875 4.75 C7.90292969 5.63171875 8.61835938 6.5134375 9.35546875 7.421875 C11 10 11 10 11 14 C7.01813496 13.46968389 5.31501183 11.62243552 2.6875 8.6875 C1.61048828 7.51767578 1.61048828 7.51767578 0.51171875 6.32421875 C-1 4 -1 4 -0.73046875 1.70703125 C-0.48941406 1.14371094 -0.24835938 0.58039063 0 0 Z " fill="#7446C6" transform="translate(338,425)"/>
<path d="M0 0 C0.55171875 0.25652344 1.1034375 0.51304687 1.671875 0.77734375 C1.671875 3.77734375 1.671875 3.77734375 0.09765625 5.53125 C-6.920766 11.53777403 -6.920766 11.53777403 -11.328125 12.77734375 C-11.658125 11.45734375 -11.988125 10.13734375 -12.328125 8.77734375 C-10.75934826 7.24149935 -9.17256346 5.72403044 -7.578125 4.21484375 C-6.69640625 3.36792969 -5.8146875 2.52101563 -4.90625 1.6484375 C-2.328125 -0.22265625 -2.328125 -0.22265625 0 0 Z " fill="#7445C6" transform="translate(491.328125,413.22265625)"/>
<path d="M0 0 C1.32 0.33 2.64 0.66 4 1 C3.42176904 5.06225548 2.10882263 7.84762346 -0.0625 11.3125 C-0.61035156 12.19550781 -1.15820312 13.07851563 -1.72265625 13.98828125 C-2.14417969 14.65214844 -2.56570312 15.31601562 -3 16 C-4.32 15.34 -5.64 14.68 -7 14 C-5.23570801 9.02790438 -2.6060834 4.56561939 0 0 Z " fill="#7344C5" transform="translate(20,399)"/>
<path d="M0 0 C0.33 1.32 0.66 2.64 1 4 C-0.93370231 5.00732399 -2.87210306 6.00563288 -4.8125 7 C-6.43091797 7.8353125 -6.43091797 7.8353125 -8.08203125 8.6875 C-11 10 -11 10 -14 10 C-14.33 8.68 -14.66 7.36 -15 6 C-12.87717331 4.99539469 -10.75166979 3.99644398 -8.625 3 C-7.44164062 2.443125 -6.25828125 1.88625 -5.0390625 1.3125 C-2 0 -2 0 0 0 Z " fill="#7445C6" transform="translate(996,393)"/>
<path d="M0 0 C1.32 0.66 2.64 1.32 4 2 C2.6744419 5.62276315 1.05653045 8.63505348 -1.125 11.8125 C-1.93324219 12.99779297 -1.93324219 12.99779297 -2.7578125 14.20703125 C-3.16773438 14.79871094 -3.57765625 15.39039063 -4 16 C-5.32 15.34 -6.64 14.68 -8 14 C-5.40358635 9.28951041 -2.81136668 4.58696668 0 0 Z " fill="#7547C6" transform="translate(49,352)"/>
<path d="M0 0 C0.99 0 1.98 0 3 0 C3.8394882 2.10171867 4.67139656 4.20646625 5.5 6.3125 C6.19609375 8.07013672 6.19609375 8.07013672 6.90625 9.86328125 C8 13 8 13 8 16 C5.6484375 15.83203125 5.6484375 15.83203125 3 15 C1.6015625 12.63671875 1.6015625 12.63671875 0.625 9.6875 C0.11839844 8.23923828 0.11839844 8.23923828 -0.3984375 6.76171875 C-0.99924146 4.00348237 -0.95574457 2.61278223 0 0 Z " fill="#7546C6" transform="translate(283,300)"/>
<path d="M0 0 C-0.1640625 1.79296875 -0.1640625 1.79296875 -1 4 C-3.3984375 5.73828125 -3.3984375 5.73828125 -6.375 7.3125 C-7.84066406 8.11107422 -7.84066406 8.11107422 -9.3359375 8.92578125 C-12 10 -12 10 -15 9 C-14.8359375 7.20703125 -14.8359375 7.20703125 -14 5 C-11.6015625 3.26171875 -11.6015625 3.26171875 -8.625 1.6875 C-7.64789062 1.15511719 -6.67078125 0.62273437 -5.6640625 0.07421875 C-3 -1 -3 -1 0 0 Z " fill="#7344C5" transform="translate(637,288)"/>
<path d="M0 0 C0.99 0.33 1.98 0.66 3 1 C2.39644592 4.85025879 1.23227397 7.86101159 -0.5625 11.3125 C-1.01753906 12.19550781 -1.47257812 13.07851563 -1.94140625 13.98828125 C-2.29074219 14.65214844 -2.64007812 15.31601562 -3 16 C-4.32 15.67 -5.64 15.34 -7 15 C-6.41924692 11.27790075 -5.38005719 8.50730838 -3.5 5.25 C-3.0565625 4.47140625 -2.613125 3.6928125 -2.15625 2.890625 C-1 1 -1 1 0 0 Z " fill="#7243C5" transform="translate(1115,248)"/>
<path d="M0 0 C0.99 0.99 1.98 1.98 3 3 C-0.54938414 6.84516615 -4.61288008 10.15122083 -9 13 C-9.66 13 -10.32 13 -11 13 C-11.33 11.68 -11.66 10.36 -12 9 C-10.37680325 7.68527053 -8.751385 6.37328338 -7.125 5.0625 C-6.22007812 4.33160156 -5.31515625 3.60070312 -4.3828125 2.84765625 C-2 1 -2 1 0 0 Z " fill="#7445C6" transform="translate(157,228)"/>
<path d="M0 0 C1.41875765 0.76697796 2.83491452 1.53876778 4.25 2.3125 C5.03890625 2.74175781 5.8278125 3.17101562 6.640625 3.61328125 C8.89727134 4.9396214 10.93998597 6.38884224 13 8 C12.67 9.32 12.34 10.64 12 12 C8.37723685 10.6744419 5.36494652 9.05653045 2.1875 6.875 C1.39730469 6.33617187 0.60710937 5.79734375 -0.20703125 5.2421875 C-0.79871094 4.83226562 -1.39039063 4.42234375 -2 4 C-1.34 2.68 -0.68 1.36 0 0 Z " fill="#7244C5" transform="translate(358,444)"/>
<path d="M0 0 C3.74592831 1.24864277 4.24472985 2.48822934 6.25 5.8125 C6.79140625 6.68519531 7.3328125 7.55789063 7.890625 8.45703125 C9 11 9 11 8.671875 13.32421875 C8.45015625 13.87722656 8.2284375 14.43023437 8 15 C7.01 15 6.02 15 5 15 C3.17578125 12.4453125 3.17578125 12.4453125 1.3125 9.125 C0.68988281 8.03445313 0.06726563 6.94390625 -0.57421875 5.8203125 C-2 3 -2 3 -2 1 C-1.34 0.67 -0.68 0.34 0 0 Z " fill="#7243C5" transform="translate(324,402)"/>
<path d="M0 0 C4.72224516 1.53472968 9.35855331 3.23945126 14 5 C14 6.65 14 8.3 14 10 C8.53262809 8.25192871 3.24175152 6.34205919 -2 4 C-1.34 2.68 -0.68 1.36 0 0 Z " fill="#7445C6" transform="translate(903,396)"/>
<path d="M0 0 C0.57492187 0.24105469 1.14984375 0.48210937 1.7421875 0.73046875 C0.20574898 4.41116762 -2.03932195 6.71822079 -4.8828125 9.48046875 C-6.10871094 10.67929687 -6.10871094 10.67929687 -7.359375 11.90234375 C-7.98585938 12.505625 -8.61234375 13.10890625 -9.2578125 13.73046875 C-10.2478125 13.07046875 -11.2378125 12.41046875 -12.2578125 11.73046875 C-10.79155394 8.38225977 -8.92122803 6.03780516 -6.3828125 3.41796875 C-5.36574219 2.34095703 -5.36574219 2.34095703 -4.328125 1.2421875 C-2.2578125 -0.26953125 -2.2578125 -0.26953125 0 0 Z " fill="#7040C4" transform="translate(511.2578125,394.26953125)"/>
<path d="M0 0 C3.18559952 1.39633107 5.23943845 3.04557493 7.625 5.5625 C10.04521959 8.14015389 10.04521959 8.14015389 13 10 C12.34 11.32 11.68 12.64 11 14 C7.65179102 12.53374144 5.30733641 10.66341553 2.6875 8.125 C1.96949219 7.44695312 1.25148438 6.76890625 0.51171875 6.0703125 C-1 4 -1 4 -0.73046875 1.7421875 C-0.48941406 1.16726563 -0.24835937 0.59234375 0 0 Z " fill="#7446C6" transform="translate(859,363)"/>
<path d="M0 0 C1.32 0.33 2.64 0.66 4 1 C2.65070536 4.83663072 0.92248975 7.65172569 -1.625 10.8125 C-2.25664063 11.60269531 -2.88828125 12.39289063 -3.5390625 13.20703125 C-4.02117187 13.79871094 -4.50328125 14.39039063 -5 15 C-5.99 14.34 -6.98 13.68 -8 13 C-6.40956621 7.91061189 -3.2553049 4.12543357 0 0 Z " fill="#7345C5" transform="translate(1072,319)"/>
<path d="M0 0 C0.99 0.33 1.98 0.66 3 1 C2.66179961 3.99645548 1.99645313 5.00354052 -0.1796875 7.17578125 C-1.06914063 7.88089844 -1.95859375 8.58601563 -2.875 9.3125 C-3.75929688 10.03050781 -4.64359375 10.74851562 -5.5546875 11.48828125 C-6.36164062 11.98714844 -7.16859375 12.48601562 -8 13 C-8.99 12.67 -9.98 12.34 -11 12 C-10.66179961 9.00354452 -9.99645313 7.99645948 -7.8203125 5.82421875 C-6.93085937 5.11910156 -6.04140625 4.41398437 -5.125 3.6875 C-4.24070312 2.96949219 -3.35640625 2.25148438 -2.4453125 1.51171875 C-1.63835938 1.01285156 -0.83140625 0.51398438 0 0 Z " fill="#7344C5" transform="translate(589,318)"/>
<path d="M0 0 C0.99 0.33 1.98 0.66 3 1 C2.44010697 4.99012371 1.24330232 7.5255052 -1.0625 10.8125 C-1.88427734 11.99779297 -1.88427734 11.99779297 -2.72265625 13.20703125 C-3.14417969 13.79871094 -3.56570313 14.39039063 -4 15 C-5.32 14.67 -6.64 14.34 -8 14 C-7.37606349 10.23880524 -5.65226285 7.81039958 -3.4375 4.75 C-2.79683594 3.85796875 -2.15617187 2.9659375 -1.49609375 2.046875 C-0.75552734 1.03367187 -0.75552734 1.03367187 0 0 Z " fill="#7344C5" transform="translate(1088,296)"/>
<path d="M0 0 C3.62276315 1.3255581 6.63505348 2.94346955 9.8125 5.125 C10.60269531 5.66382813 11.39289062 6.20265625 12.20703125 6.7578125 C12.79871094 7.16773438 13.39039063 7.57765625 14 8 C13.34 9.32 12.68 10.64 12 12 C10.58124235 11.23302204 9.16508548 10.46123222 7.75 9.6875 C6.96109375 9.25824219 6.1721875 8.82898438 5.359375 8.38671875 C3.10272866 7.0603786 1.06001403 5.61115776 -1 4 C-0.67 2.68 -0.34 1.36 0 0 Z " fill="#7344C5" transform="translate(778,290)"/>
<path d="M0 0 C0.99 0.66 1.98 1.32 3 2 C1.50923566 5.2826932 -0.38620321 7.93077441 -2.625 10.75 C-3.57246094 11.94882812 -3.57246094 11.94882812 -4.5390625 13.171875 C-5.26222656 14.07679688 -5.26222656 14.07679688 -6 15 C-7.32 14.67 -8.64 14.34 -10 14 C-8.43632643 10.47761953 -6.30504111 7.72876006 -3.875 4.75 C-3.15054688 3.85796875 -2.42609375 2.9659375 -1.6796875 2.046875 C-0.84824219 1.03367187 -0.84824219 1.03367187 0 0 Z " fill="#7345C5" transform="translate(98,285)"/>
<path d="M0 0 C1.32 0 2.64 0 4 0 C4.83986084 1.93467942 5.67168027 3.87285129 6.5 5.8125 C7.19609375 7.43091797 7.19609375 7.43091797 7.90625 9.08203125 C9 12 9 12 9 15 C7.68 15.33 6.36 15.66 5 16 C4.15787744 14.08717875 3.32661136 12.16957527 2.5 10.25 C2.0359375 9.18265625 1.571875 8.1153125 1.09375 7.015625 C0 4 0 4 0 0 Z " fill="#7345C6" transform="translate(272,275)"/>
<path d="M0 0 C1.32 0.66 2.64 1.32 4 2 C1.36 6.62 -1.28 11.24 -4 16 C-5.32 15.67 -6.64 15.34 -8 15 C-6.62712658 11.30123909 -4.93644547 8.0485524 -2.875 4.6875 C-2.33617187 3.80449219 -1.79734375 2.92148437 -1.2421875 2.01171875 C-0.83226562 1.34785156 -0.42234375 0.68398438 0 0 Z " fill="#7445C6" transform="translate(1102,272)"/>
<path d="M0 0 C5.28 0.66 10.56 1.32 16 2 C16 3.65 16 5.3 16 7 C13.7077546 6.69177379 11.41621545 6.37829126 9.125 6.0625 C7.84882813 5.88847656 6.57265625 5.71445312 5.2578125 5.53515625 C2 5 2 5 0 4 C0 2.68 0 1.36 0 0 Z " fill="#7242C5" transform="translate(381,457)"/>
<path d="M0 0 C1.32 0.66 2.64 1.32 4 2 C0.11973109 6.24404412 -4.04254346 9.10917547 -9 12 C-9.99 11.01 -10.98 10.02 -12 9 C-8.11327187 5.81994972 -4.10047867 2.89445553 0 0 Z " fill="#7243C5" transform="translate(1017,379)"/>
<path d="M0 0 C0.99 0.66 1.98 1.32 3 2 C1.52278578 5.45201639 -0.43794001 7.64961936 -3.125 10.25 C-3.84945313 10.95640625 -4.57390625 11.6628125 -5.3203125 12.390625 C-5.87460938 12.92171875 -6.42890625 13.4528125 -7 14 C-8.32 13.34 -9.64 12.68 -11 12 C-11 11.34 -11 10.68 -11 10 C-9.35546875 8.37890625 -9.35546875 8.37890625 -7.1875 6.5625 C-4.68897282 4.45536324 -2.2757944 2.34758602 0 0 Z " fill="#7243C5" transform="translate(1038,360)"/>
<path d="M0 0 C1.85546875 0.16796875 1.85546875 0.16796875 4 1 C5.30078125 3.36328125 5.30078125 3.36328125 6.3125 6.3125 C6.65925781 7.27800781 7.00601562 8.24351562 7.36328125 9.23828125 C8.00223885 12.00971084 7.96792149 13.37100033 7 16 C6.01 16 5.02 16 4 16 C3.13444052 13.90049414 2.28288723 11.7952093 1.4375 9.6875 C0.72400391 7.92986328 0.72400391 7.92986328 -0.00390625 6.13671875 C-1 3 -1 3 0 0 Z " fill="#7344C5" transform="translate(292,326)"/>
<path d="M0 0 C3.47775179 1.51553404 5.9557984 3.5773456 8.75 6.125 C9.94882812 7.21167969 9.94882812 7.21167969 11.171875 8.3203125 C11.77515625 8.87460937 12.3784375 9.42890625 13 10 C12.34 11.32 11.68 12.64 11 14 C10.55269531 13.61328125 10.10539063 13.2265625 9.64453125 12.828125 C6.1478974 9.81609925 2.62592537 6.85678969 -1 4 C-0.67 2.68 -0.34 1.36 0 0 Z " fill="#7445C6" transform="translate(800,306)"/>
<path d="M0 0 C0 1.32 0 2.64 0 4 C-5.07476794 5.26305335 -9.72796354 6.27036084 -15 6 C-15.33 4.68 -15.66 3.36 -16 2 C-10.54538831 0.61470179 -5.63281599 -0.2396943 0 0 Z " fill="#7446C6" transform="translate(688,270)"/>
<path d="M0 0 C0 1.32 0 2.64 0 4 C-5.27913453 6.08386889 -10.39538469 6.57910004 -16 7 C-16 5.35 -16 3.7 -16 2 C-13.89627599 1.66388432 -11.79200343 1.33120054 -9.6875 1 C-8.51574219 0.814375 -7.34398437 0.62875 -6.13671875 0.4375 C-3 0 -3 0 0 0 Z " fill="#7344C5" transform="translate(971,403)"/>
<path d="M0 0 C0.99 0.66 1.98 1.32 3 2 C1.52278578 5.45201639 -0.43794001 7.64961936 -3.125 10.25 C-3.84945312 10.95640625 -4.57390625 11.6628125 -5.3203125 12.390625 C-5.87460937 12.92171875 -6.42890625 13.4528125 -7 14 C-8.32 13.34 -9.64 12.68 -11 12 C-7.49102731 7.81576108 -3.91939465 3.80411834 0 0 Z " fill="#7041C4" transform="translate(529,374)"/>
<path d="M0 0 C1.32 0.66 2.64 1.32 4 2 C0.32167983 6.52615993 -3.41086363 10.39424999 -8 14 C-8.66 12.68 -9.32 11.36 -10 10 C-6.7 6.7 -3.4 3.4 0 0 Z " fill="#6F3FC4" transform="translate(548,355)"/>
<path d="M0 0 C4.52615993 3.67832017 8.39424999 7.41086363 12 12 C10.02 12.99 10.02 12.99 8 14 C4.7 10.7 1.4 7.4 -2 4 C-1.34 2.68 -0.68 1.36 0 0 Z " fill="#7141C4" transform="translate(821,324)"/>
<path d="M0 0 C0.99 0.33 1.98 0.66 3 1 C2.37606349 4.76119476 0.65226285 7.18960042 -1.5625 10.25 C-2.20316406 11.14203125 -2.84382813 12.0340625 -3.50390625 12.953125 C-4.24447266 13.96632813 -4.24447266 13.96632813 -5 15 C-6.32 14.67 -7.64 14.34 -9 14 C-7.65070536 10.16336928 -5.92248975 7.34827431 -3.375 4.1875 C-2.42753906 3.00220703 -2.42753906 3.00220703 -1.4609375 1.79296875 C-0.97882813 1.20128906 -0.49671875 0.60960937 0 0 Z " fill="#7243C5" transform="translate(81,307)"/>
<path d="M0 0 C0 0.99 0 1.98 0 3 C-1.91040052 3.8680908 -3.82860737 4.71901783 -5.75 5.5625 C-6.81734375 6.03816406 -7.8846875 6.51382812 -8.984375 7.00390625 C-11.98369837 7.9946154 -13.13421241 8.16161779 -16 7 C-16 6.01 -16 5.02 -16 4 C-13.90049414 3.13444052 -11.7952093 2.28288723 -9.6875 1.4375 C-8.51574219 0.96183594 -7.34398437 0.48617188 -6.13671875 -0.00390625 C-3 -1 -3 -1 0 0 Z " fill="#7243C5" transform="translate(662,277)"/>
<path d="M0 0 C0.99 0.66 1.98 1.32 3 2 C1.52278578 5.45201639 -0.43794001 7.64961936 -3.125 10.25 C-3.84945312 10.95640625 -4.57390625 11.6628125 -5.3203125 12.390625 C-5.87460938 12.92171875 -6.42890625 13.4528125 -7 14 C-8.32 13.34 -9.64 12.68 -11 12 C-7.49102731 7.81576108 -3.91939465 3.80411834 0 0 Z " fill="#6E3EC3" transform="translate(135,245)"/>
<path d="M0 0 C8.22689076 6.72478992 8.22689076 6.72478992 11 11 C10.67 11.99 10.34 12.98 10 14 C5.91944849 13.49452628 4.33727705 11.49911118 1.75 8.4375 C1.04359375 7.61121094 0.3371875 6.78492188 -0.390625 5.93359375 C-0.92171875 5.29550781 -1.4528125 4.65742188 -2 4 C-1.34 2.68 -0.68 1.36 0 0 Z " fill="#7041C4" transform="translate(245,228)"/>
<path d="M0 0 C1.32 0.33 2.64 0.66 4 1 C2.23570801 5.97209562 -0.3939166 10.43438061 -3 15 C-4.32 15 -5.64 15 -7 15 C-6.42176904 10.93774452 -5.10882263 8.15237654 -2.9375 4.6875 C-2.38964844 3.80449219 -1.84179688 2.92148437 -1.27734375 2.01171875 C-0.64505859 1.01591797 -0.64505859 1.01591797 0 0 Z " fill="#7243C5" transform="translate(7,423)"/>
<path d="M0 0 C5.28 0.33 10.56 0.66 16 1 C16 2.32 16 3.64 16 5 C13.70839681 5.02692484 11.41670454 5.04636124 9.125 5.0625 C7.84882812 5.07410156 6.57265625 5.08570313 5.2578125 5.09765625 C2 5 2 5 0 4 C0 2.68 0 1.36 0 0 Z " fill="#6F3FC4" transform="translate(928,405)"/>
<path d="M0 0 C1.65 0.33 3.3 0.66 5 1 C1.535 8.425 1.535 8.425 -2 16 C-3.32 15.34 -4.64 14.68 -6 14 C-4.02 9.38 -2.04 4.76 0 0 Z " fill="#7040C4" transform="translate(1126,224)"/>
<path d="M0 0 C1.27230469 0.00902344 2.54460937 0.01804688 3.85546875 0.02734375 C5.31919922 0.04474609 5.31919922 0.04474609 6.8125 0.0625 C6.8125 1.3825 6.8125 2.7025 6.8125 4.0625 C-1.1075 4.5575 -1.1075 4.5575 -9.1875 5.0625 C-9.5175 3.7425 -9.8475 2.4225 -10.1875 1.0625 C-6.62704823 -0.12431726 -3.74941663 -0.03439832 0 0 Z " fill="#6E3DC3" transform="translate(203.1875,210.9375)"/>
</svg>
