<?xml version="1.0" encoding="UTF-8"?>
<svg version="1.1" xmlns="http://www.w3.org/2000/svg" width="500" height="500">
<path d="M0 0 C0.99 0.33 1.98 0.66 3 1 C4.29766058 3.64123255 5.40823262 6.20944677 6.46875 8.9453125 C6.79033081 9.7485495 7.11191162 10.5517865 7.4432373 11.37936401 C8.47268455 13.9571981 9.48660499 16.5408187 10.5 19.125 C11.18255209 20.84416393 11.86613391 22.56291942 12.55078125 24.28125 C13.52096221 26.71650311 14.48967004 29.15221226 15.45007324 31.59133911 C17.22503874 36.09603118 19.07065265 40.559124 21 45 C24.18751247 38.74254723 27.21286475 32.44622342 30 26 C30.66 26 31.32 26 32 26 C35.96 35.405 35.96 35.405 40 45 C44.809929 35.89516308 48.53789719 26.43951697 52.3125 16.875 C52.96378814 15.23421435 53.61547774 13.593588 54.26757812 11.953125 C55.84968485 7.97057075 57.42634909 3.98590259 59 0 C59.99 0 60.98 0 62 0 C61.39428638 3.48904989 60.48401949 6.54821065 59.109375 9.80859375 C58.73184082 10.71416016 58.35430664 11.61972656 57.96533203 12.55273438 C57.56427246 13.50470703 57.16321289 14.45667969 56.75 15.4375 C53.62836441 22.93732517 50.66862703 30.42629027 48.0703125 38.125 C46.92078035 41.2127944 45.50512219 44.07133406 44 47 C43.31471955 48.65910004 42.64108137 50.32332564 42 52 C41.01 52 40.02 52 39 52 C35.04 42.595 35.04 42.595 31 33 C27.96826632 39.65297112 24.95556024 46.31283855 22 53 C18.95117119 50.43250644 17.81149954 47.61859556 16.328125 43.9609375 C15.83151367 42.74784912 15.33490234 41.53476074 14.82324219 40.28491211 C14.298542 38.98172324 13.77413306 37.67841707 13.25 36.375 C12.71320615 35.05385719 12.17576936 33.73297544 11.63769531 32.41235352 C10.8357907 30.44307731 10.03474641 28.47348221 9.23699951 26.5025177 C7.73923942 22.80267333 6.21629803 19.11540235 4.65625 15.44140625 C4.3272168 14.66297363 3.99818359 13.88454102 3.65917969 13.08251953 C3.07094602 11.69470508 2.47814414 10.30881426 1.87988281 8.92529297 C0.49995366 5.63812334 0 3.65194613 0 0 Z " fill="#EDB65A" transform="translate(297,206)"/>
<path d="M0 0 C0.87398437 -0.020625 1.74796875 -0.04125 2.6484375 -0.0625 C10.03823985 -0.10635639 16.52617954 0.90890729 22.4375 5.5625 C25.75310143 9.88282913 26.73615211 13.36883355 26.375 18.75 C25.74939307 23.0710525 24.37770331 25.89267947 21.5 29.25 C18.51106771 31.43702362 17.22055546 32.25 13.5 32.25 C13.85827881 32.71374023 14.21655762 33.17748047 14.58569336 33.65527344 C16.20970433 35.76509064 17.82365366 37.88239913 19.4375 40 C20.00146484 40.72960937 20.56542969 41.45921875 21.14648438 42.2109375 C21.95375977 43.27441406 21.95375977 43.27441406 22.77734375 44.359375 C23.27484131 45.00874023 23.77233887 45.65810547 24.28491211 46.32714844 C25.54040896 48.31394635 26.06881614 49.95333156 26.5 52.25 C22.19344786 50.71123195 20.04423142 47.4235939 17.4375 43.875 C17.00373047 43.2975 16.56996094 42.72 16.12304688 42.125 C14.90826963 40.50529701 13.70381674 38.87786571 12.5 37.25 C11.60474609 36.14785156 11.60474609 36.14785156 10.69140625 35.0234375 C9.5 33.25 9.5 33.25 9.5 30.25 C10.7375 29.8375 11.975 29.425 13.25 29 C16.81073041 27.66393832 19.1128864 26.30550541 21.5 23.25 C23.07190666 18.53428001 23.00255135 14.70181501 21.375 10 C19.36633614 6.57433268 19.36633614 6.57433268 13.5 4.25 C6.57 3.92 -0.36 3.59 -7.5 3.25 C-7.5 19.42 -7.5 35.59 -7.5 52.25 C-8.49 52.25 -9.48 52.25 -10.5 52.25 C-10.52526739 45.00513449 -10.5428318 37.76028026 -10.55493164 30.51538086 C-10.55997356 28.04857967 -10.56680691 25.58178148 -10.57543945 23.11499023 C-10.58751125 19.57795471 -10.59322956 16.04095855 -10.59765625 12.50390625 C-10.60281754 11.39350479 -10.60797882 10.28310333 -10.61329651 9.13905334 C-10.61337204 8.11807053 -10.61344757 7.09708771 -10.61352539 6.04516602 C-10.615746 5.14137711 -10.61796661 4.2375882 -10.62025452 3.30641174 C-10.32623845 -1.72140852 -3.86087959 0.02199931 0 0 Z " fill="#354D69" transform="translate(93.5,203.75)"/>
<path d="M0 0 C3 1 3 1 3.9831543 2.76586914 C4.26070557 3.51473389 4.53825684 4.26359863 4.82421875 5.03515625 C5.13037109 5.84404297 5.43652344 6.65292969 5.75195312 7.48632812 C6.06068359 8.33646484 6.36941406 9.18660156 6.6875 10.0625 C7.00783203 10.91650391 7.32816406 11.77050781 7.65820312 12.65039062 C8.44908493 14.76334351 9.2291202 16.87968513 10 19 C12.69648786 13.76207028 14.99671477 8.55859152 16.97265625 3.00390625 C18 1 18 1 21 0 C23.64 6.27 26.28 12.54 29 19 C31.71311046 13.57377907 33.96941873 8.63532504 35.97265625 3.00390625 C37 1 37 1 40 0 C40.53003036 4.24024288 39.20264875 6.91477785 37.2109375 10.6015625 C35.26106247 14.46357305 33.78793406 18.51947766 32.24609375 22.55859375 C31 25 31 25 28 26 C25.36 19.73 22.72 13.46 20 7 C19.071875 9.02125 18.14375 11.0425 17.1875 13.125 C15.19838192 17.45685715 13.15244813 21.74681421 11 26 C10.34 26 9.68 26 9 26 C5.7 17.75 2.4 9.5 -1 1 C-0.67 0.67 -0.34 0.34 0 0 Z " fill="#EBB75F" transform="translate(308,206)"/>
<path d="M0 0 C1.16208984 0.07831055 1.16208984 0.07831055 2.34765625 0.15820312 C4.23224487 0.28616902 6.11620371 0.42335596 8 0.5625 C8 1.2225 8 1.8825 8 2.5625 C-0.58 2.5625 -9.16 2.5625 -18 2.5625 C-17.67 5.5325 -17.34 8.5025 -17 11.5625 C-16.92265309 14.63525157 -16.88214497 17.68276544 -16.90234375 20.75390625 C-16.90446617 21.99997902 -16.90446617 21.99997902 -16.90663147 23.27122498 C-16.9121683 25.88918875 -16.92470838 28.50706267 -16.9375 31.125 C-16.94252319 32.91471229 -16.94708465 34.70442595 -16.95117188 36.49414062 C-16.9612603 40.85032175 -16.98084724 45.2063119 -17 49.5625 C-8.75 49.5625 -0.5 49.5625 8 49.5625 C8 50.2225 8 50.8825 8 51.5625 C-1.24 51.5625 -10.48 51.5625 -20 51.5625 C-20.06880774 44.7811153 -20.12856146 38.00093788 -20.16479492 31.21948242 C-20.17989676 28.91182352 -20.20037969 26.60419339 -20.22631836 24.29663086 C-20.26263975 20.98283801 -20.27971236 17.66942408 -20.29296875 14.35546875 C-20.30845261 13.3210112 -20.32393646 12.28655365 -20.33988953 11.2207489 C-20.34011612 10.2599794 -20.34034271 9.2992099 -20.34057617 8.30932617 C-20.34723801 7.46327316 -20.35389984 6.61722015 -20.36076355 5.74552917 C-19.9119012 3.02940224 -19.20426991 2.17568783 -17 0.5625 C-11.24024629 -0.5733135 -5.82794098 -0.43936817 0 0 Z " fill="#374F6A" transform="translate(67,204.4375)"/>
<path d="M0 0 C0 0.66 0 1.32 0 2 C-1.1446875 1.7525 -1.1446875 1.7525 -2.3125 1.5 C-8.71704341 0.63158733 -14.60832985 -0.13289639 -20.5625 2.6875 C-23.79934242 5.7583505 -24.8939695 7.67157012 -25.09765625 12.14453125 C-24.92179453 16.38631584 -24.49082309 18.44459492 -21.625 21.6875 C-17.81306821 24.39965685 -13.50798513 26.37272501 -9.29296875 28.375 C-7 30 -7 30 -6.1171875 32.546875 C-6 35 -6 35 -6.9375 37.25 C-10.02055554 39.86592591 -13.0920215 40.18192314 -17 40 C-21.88276349 38.98146176 -25.1689521 38.24657185 -28 34 C-27.01 33.505 -27.01 33.505 -26 33 C-24.33910144 33.76401334 -22.67843526 34.52854051 -21.01953125 35.296875 C-17.64268806 36.47256508 -14.54539207 36.18659958 -11 36 C-10.67 34.68 -10.34 33.36 -10 32 C-10.88042969 31.56429687 -11.76085937 31.12859375 -12.66796875 30.6796875 C-26.29343917 23.69304229 -26.29343917 23.69304229 -29 16.25 C-29 10.35065343 -27.74498799 4.8864735 -23.6875 0.5 C-15.23608052 -4.21707134 -8.64019875 -3.63797842 0 0 Z " fill="#324A64" transform="translate(242,207)"/>
<path d="M0 0 C0.87527344 0.06703125 1.75054687 0.1340625 2.65234375 0.203125 C5.36750974 0.81920805 6.32984767 1.62278327 8.0625 3.75 C5.0625 4.75 5.0625 4.75 2.0625 3.75 C0.50131572 3.68259135 -1.0625252 3.66485544 -2.625 3.6875 C-3.43324219 3.69652344 -4.24148437 3.70554688 -5.07421875 3.71484375 C-5.68910156 3.72644531 -6.30398437 3.73804688 -6.9375 3.75 C-6.87379221 5.67881596 -6.87379221 5.67881596 -5.9375 7.75 C-3.37309093 9.30582231 -3.37309093 9.30582231 -0.25 10.5625 C5.10723815 13.10718812 9.20562849 15.41867284 12.0625 20.75 C13.56926777 25.13174995 13.27268411 28.08626071 11.875 32.5 C9.380015 36.97376621 6.84218291 39.84464088 2.0625 41.75 C-5.83199123 42.49861555 -12.76023694 42.19508627 -19.9375 38.75 C-19.9375 38.09 -19.9375 37.43 -19.9375 36.75 C-14.33423469 37.64142857 -14.33423469 37.64142857 -12.0390625 38.26953125 C-6.80667721 39.46578291 -1.57869926 39.28711976 3.5 37.625 C6.71374038 35.27348265 7.76204232 33.50687775 9.0625 29.75 C9.45585237 25.26578295 9.321289 21.70288075 7.0625 17.75 C4.88892972 16.50093472 2.65748279 15.58462765 0.3359375 14.63671875 C-1.09878906 14.04310547 -1.09878906 14.04310547 -2.5625 13.4375 C-3.52414063 13.04949219 -4.48578125 12.66148437 -5.4765625 12.26171875 C-7.9375 10.75 -7.9375 10.75 -9.3515625 8.25390625 C-9.9375 5.75 -9.9375 5.75 -8.6875 3 C-5.94259092 -0.52916881 -4.26348963 -0.37563785 0 0 Z " fill="#2E4862" transform="translate(232.9375,214.25)"/>
<path d="M0 0 C0.99 0 1.98 0 3 0 C3 16.17 3 32.34 3 49 C12.24 49 21.48 49 31 49 C31 49.66 31 50.32 31 51 C20.77 51 10.54 51 0 51 C0 34.17 0 17.34 0 0 Z " fill="#E6B561" transform="translate(400,206)"/>
<path d="M0 0 C9.24 0 18.48 0 28 0 C28 0.66 28 1.32 28 2 C19.42 2 10.84 2 2 2 C2.33 17.18 2.66 32.36 3 48 C11.25 48.33 19.5 48.66 28 49 C28 49.66 28 50.32 28 51 C18.76 51 9.52 51 0 51 C0 34.17 0 17.34 0 0 Z " fill="#EDBA5F" transform="translate(364,206)"/>
<path d="M0 0 C9.24 0 18.48 0 28 0 C27.67 0.66 27.34 1.32 27 2 C18.75 2 10.5 2 2 2 C2 17.51 2 33.02 2 49 C10.58 49 19.16 49 28 49 C28 49.66 28 50.32 28 51 C18.76 51 9.52 51 0 51 C0 34.17 0 17.34 0 0 Z " fill="#374E66" transform="translate(179,205)"/>
<path d="M0 0 C0.99 0 1.98 0 3 0 C4.25512695 1.32592773 4.25512695 1.32592773 5.48828125 3.18359375 C5.94783203 3.86486328 6.40738281 4.54613281 6.88085938 5.24804688 C7.58952148 6.33182617 7.58952148 6.33182617 8.3125 7.4375 C8.77333984 8.12521484 9.23417969 8.81292969 9.70898438 9.52148438 C11.14902344 11.67453305 12.57434365 13.83740086 14 16 C15.98 18.97 17.96 21.94 20 25 C20.33 16.75 20.66 8.5 21 0 C21.99 0 22.98 0 24 0 C24 10.56 24 21.12 24 32 C23.01 32 22.02 32 21 32 C19.70068359 30.64575195 19.70068359 30.64575195 18.3984375 28.73828125 C17.91213867 28.03711182 17.42583984 27.33594238 16.92480469 26.61352539 C16.15765137 25.47451782 16.15765137 25.47451782 15.375 24.3125 C14.8480957 23.54607178 14.32119141 22.77964355 13.77832031 21.98999023 C12.7003027 20.42106049 11.6260907 18.84950922 10.55566406 17.27539062 C9.12644828 15.18494946 7.67586149 13.11238605 6.2109375 11.046875 C5.79279785 10.45479248 5.3746582 9.86270996 4.94384766 9.25268555 C4.54987793 8.69492432 4.1559082 8.13716309 3.75 7.5625 C0 2.25 0 2.25 0 0 Z " fill="#304B68" transform="translate(135,205)"/>
<path d="M0 0 C4.49890362 2.24945181 4.49890362 2.24945181 6.48046875 5.23828125 C6.91834717 5.88780762 7.35622559 6.53733398 7.80737305 7.20654297 C8.26281494 7.90150879 8.71825684 8.59647461 9.1875 9.3125 C10.15578284 10.75942732 11.12454044 12.20603703 12.09375 13.65234375 C12.57714844 14.37921387 13.06054688 15.10608398 13.55859375 15.85498047 C14.92051779 17.88171906 16.31022425 19.8843553 17.71875 21.87890625 C18.13616455 22.47082764 18.5535791 23.06274902 18.98364258 23.67260742 C20.12752225 25.29018457 21.27270947 26.90683684 22.41796875 28.5234375 C24 31 24 31 24 33 C23.01 33 22.02 33 21 33 C19.11349926 30.57879045 17.4210605 28.18913415 15.75 25.625 C14.82873079 24.24178383 13.90684621 22.85897734 12.984375 21.4765625 C11.99953125 19.99929687 11.0146875 18.52203125 10 17 C7.69 13.7 5.38 10.4 3 7 C2.67 15.58 2.34 24.16 2 33 C1.34 33 0.68 33 0 33 C0 22.11 0 11.22 0 0 Z " fill="#2D4865" transform="translate(136,223)"/>
<path d="M0 0 C0.33 0 0.66 0 1 0 C1 16.5 1 33 1 50 C10.57 50 20.14 50 30 50 C30 50.66 30 51.32 30 52 C19.77 52 9.54 52 -1 52 C-1.02290278 44.75508786 -1.04283177 37.51030031 -1.05493164 30.26538086 C-1.05997356 27.79857967 -1.06680691 25.33178148 -1.07543945 22.86499023 C-1.08751125 19.32795471 -1.09322956 15.79095855 -1.09765625 12.25390625 C-1.10281754 11.14350479 -1.10797882 10.03310333 -1.11329651 8.88905334 C-1.11337204 7.86807053 -1.11344757 6.84708771 -1.11352539 5.79516602 C-1.115746 4.89137711 -1.11796661 3.9875882 -1.12025452 3.05641174 C-1 1 -1 1 0 0 Z " fill="#E9BD72" transform="translate(440,205)"/>
<path d="M0 0 C2.14576637 -0.02685938 4.29162645 -0.04633088 6.4375 -0.0625 C7.63246094 -0.07410156 8.82742188 -0.08570313 10.05859375 -0.09765625 C13 0 13 0 14 1 C14.08871273 4.02977804 14.1151935 7.03667022 14.09765625 10.06640625 C14.0962413 10.97502914 14.09482635 11.88365204 14.09336853 12.81980896 C14.08775193 15.73407221 14.07519665 18.64825981 14.0625 21.5625 C14.05748714 23.53320202 14.05292386 25.50390524 14.04882812 27.47460938 C14.03777711 32.31643559 14.02050138 37.15820495 14 42 C13.01 42 12.02 42 11 42 C11 29.13 11 16.26 11 3 C7.04 3 3.08 3 -1 3 C-0.67 2.01 -0.34 1.02 0 0 Z " fill="#3E5670" transform="translate(250,214)"/>
<path d="M0 0 C0.99 0 1.98 0 3 0 C3 16.83 3 33.66 3 51 C2.01 51 1.02 51 0 51 C0 34.17 0 17.34 0 0 Z " fill="#2C4864" transform="translate(166,205)"/>
<path d="M0 0 C0.99 0.33 1.98 0.66 3 1 C3 17.17 3 33.34 3 50 C1.515 50.495 1.515 50.495 0 51 C0 34.17 0 17.34 0 0 Z " fill="#2F4864" transform="translate(126,205)"/>
<path d="M0 0 C0.66 0 1.32 0 2 0 C2.78052377 6.18207232 3.13749927 12.18333292 3.09765625 18.41015625 C3.0962413 19.26306747 3.09482635 20.1159787 3.09336853 20.99473572 C3.08782939 23.68402816 3.0752888 26.37323328 3.0625 29.0625 C3.05747712 30.90038941 3.0529156 32.73828015 3.04882812 34.57617188 C3.03788 39.05081422 3.02065839 43.52539238 3 48 C2.01 48 1.02 48 0 48 C0 32.16 0 16.32 0 0 Z " fill="#374F6C" transform="translate(83,208)"/>
<path d="M0 0 C1.79244141 0.01740234 1.79244141 0.01740234 3.62109375 0.03515625 C5.41740234 0.04869141 5.41740234 0.04869141 7.25 0.0625 C8.17683594 0.07410156 9.10367187 0.08570313 10.05859375 0.09765625 C10.38859375 1.08765625 10.71859375 2.07765625 11.05859375 3.09765625 C6.76859375 3.09765625 2.47859375 3.09765625 -1.94140625 3.09765625 C-1.94140625 15.96765625 -1.94140625 28.83765625 -1.94140625 42.09765625 C-2.60140625 42.09765625 -3.26140625 42.09765625 -3.94140625 42.09765625 C-3.96605263 36.27694003 -3.98424055 30.45625391 -3.99633789 24.63549805 C-4.00137892 22.65372184 -4.00821163 20.67194936 -4.0168457 18.69018555 C-4.0289214 15.84813516 -4.0346367 13.00613378 -4.0390625 10.1640625 C-4.04422379 9.27239883 -4.04938507 8.38073517 -4.05470276 7.46205139 C-4.05489802 5.34025024 -4.00350655 3.21854845 -3.94140625 1.09765625 C-2.94140625 0.09765625 -2.94140625 0.09765625 0 0 Z " fill="#3E4C5F" transform="translate(274.94140625,213.90234375)"/>
<path d="M0 0 C0.66 0 1.32 0 2 0 C2.33 12.54 2.66 25.08 3 38 C8.94 38.33 14.88 38.66 21 39 C21 39.66 21 40.32 21 41 C14.07 41 7.14 41 0 41 C0 27.47 0 13.94 0 0 Z " fill="#E6B870" transform="translate(449,206)"/>
<path d="M0 0 C0.66 0 1.32 0 2 0 C2 12.87 2 25.74 2 39 C8.27 39 14.54 39 21 39 C21 39.66 21 40.32 21 41 C14.07 41 7.14 41 0 41 C0 27.47 0 13.94 0 0 Z " fill="#ECB85E" transform="translate(410,206)"/>
<path d="M0 0 C5.02997586 1.25749396 6.41088601 3.7556264 9.1875 7.8125 C9.63802734 8.44220703 10.08855469 9.07191406 10.55273438 9.72070312 C12.72200107 12.82012015 14.23184596 15.25044489 15 19 C9.43360785 16.85718532 7.19071312 11.78606969 4 7 C3.67 10.96 3.34 14.92 3 19 C2.01 19 1.02 19 0 19 C0 12.73 0 6.46 0 0 Z " fill="#35506D" transform="translate(93,237)"/>
<path d="M0 0 C5.61 0 11.22 0 17 0 C17.33 0.99 17.66 1.98 18 3 C12.72 3 7.44 3 2 3 C2 5.31 2 7.62 2 10 C5.63 10 9.26 10 13 10 C13 10.99 13 11.98 13 13 C8.71 13 4.42 13 0 13 C0 8.71 0 4.42 0 0 Z " fill="#ECB762" transform="translate(374,215)"/>
<path d="M0 0 C3.14565046 -0.08845016 6.29097375 -0.14086835 9.4375 -0.1875 C10.31599609 -0.21263672 11.19449219 -0.23777344 12.09960938 -0.26367188 C19.01171052 -0.3401896 24.80407114 0.90203557 31 4 C31 5.65 31 7.3 31 9 C29.8553125 8.0409375 29.8553125 8.0409375 28.6875 7.0625 C25.11969448 4.3244167 22.4833552 3.86899083 18.11328125 3.68359375 C17.17548828 3.64169922 16.23769531 3.59980469 15.27148438 3.55664062 C14.29501953 3.51732422 13.31855469 3.47800781 12.3125 3.4375 C11.32443359 3.39431641 10.33636719 3.35113281 9.31835938 3.30664062 C6.87907028 3.20058458 4.43955346 3.09979026 2 3 C2 6.3 2 9.6 2 13 C1.67 13 1.34 13 1 13 C1 10.03 1 7.06 1 4 C0.34 4 -0.32 4 -1 4 C-0.67 2.68 -0.34 1.36 0 0 Z " fill="#284561" transform="translate(84,204)"/>
<path d="M0 0 C5.61 0 11.22 0 17 0 C17 0.99 17 1.98 17 3 C12.05 3 7.1 3 2 3 C2 5.31 2 7.62 2 10 C5.63 10 9.26 10 13 10 C13 10.99 13 11.98 13 13 C8.71 13 4.42 13 0 13 C0 8.71 0 4.42 0 0 Z " fill="#324A62" transform="translate(189,214)"/>
<path d="M0 0 C1.48831242 0.00667405 2.97660807 0.01863442 4.46484375 0.03515625 C5.22345703 0.03966797 5.98207031 0.04417969 6.76367188 0.04882812 C8.64326246 0.06064945 10.52281274 0.07858547 12.40234375 0.09765625 C12.73234375 1.08765625 13.06234375 2.07765625 13.40234375 3.09765625 C8.12234375 3.09765625 2.84234375 3.09765625 -2.59765625 3.09765625 C-2.59765625 5.40765625 -2.59765625 7.71765625 -2.59765625 10.09765625 C1.03234375 10.09765625 4.66234375 10.09765625 8.40234375 10.09765625 C8.40234375 11.08765625 8.40234375 12.07765625 8.40234375 13.09765625 C4.11234375 13.09765625 -0.17765625 13.09765625 -4.59765625 13.09765625 C-4.6953125 3.8203125 -4.6953125 3.8203125 -4.59765625 1.09765625 C-3.59765625 0.09765625 -3.59765625 0.09765625 0 0 Z " fill="#334961" transform="translate(61.59765625,213.90234375)"/>
<path d="M0 0 C4.29 0 8.58 0 13 0 C12.67 0.99 12.34 1.98 12 3 C8.7 3 5.4 3 2 3 C2 5.31 2 7.62 2 10 C7.28 10 12.56 10 18 10 C18 10.66 18 11.32 18 12 C12.83047166 14.58476417 5.51353963 12.93847483 0 12 C0 8.04 0 4.08 0 0 Z " fill="#F6C249" transform="translate(374,235)"/>
<path d="M0 0 C9.24 0 18.48 0 28 0 C27.67 0.66 27.34 1.32 27 2 C18.75 2 10.5 2 2 2 C1.67 10.25 1.34 18.5 1 27 C0.67 27 0.34 27 0 27 C0 18.09 0 9.18 0 0 Z " fill="#354659" transform="translate(179,205)"/>
<path d="M0 0 C4.29 0 8.58 0 13 0 C12.67 0.99 12.34 1.98 12 3 C8.7 3 5.4 3 2 3 C2 5.31 2 7.62 2 10 C7.28 10 12.56 10 18 10 C18 10.66 18 11.32 18 12 C12.06 12 6.12 12 0 12 C0 8.04 0 4.08 0 0 Z " fill="#3B536A" transform="translate(189,234)"/>
<path d="M0 0 C4.29 0 8.58 0 13 0 C12.67 0.99 12.34 1.98 12 3 C8.7 3 5.4 3 2 3 C2 5.31 2 7.62 2 10 C7.28 10 12.56 10 18 10 C18 10.66 18 11.32 18 12 C12.06 12 6.12 12 0 12 C0 8.04 0 4.08 0 0 Z " fill="#3E4F64" transform="translate(57,234)"/>
<path d="M0 0 C4.60447094 -0.24139945 8.72356374 -0.43398833 13.125 1.0625 C15 3 15 3 15.625 6.5 C15 10 15 10 12.8125 12 C9.67118829 13.11691083 8.13977726 12.98678714 5 12 C5 11.34 5 10.68 5 10 C7.31 9.34 9.62 8.68 12 8 C11.67 6.68 11.34 5.36 11 4 C7.04 3.67 3.08 3.34 -1 3 C-0.67 2.01 -0.34 1.02 0 0 Z " fill="#344960" transform="translate(94,214)"/>
<path d="M0 0 C0 0.66 0 1.32 0 2 C-1.1446875 1.7525 -1.1446875 1.7525 -2.3125 1.5 C-11.7787113 0.01791139 -11.7787113 0.01791139 -20.5625 2.875 C-22.08477739 4.20211362 -23.57196656 5.57196656 -25 7 C-25.33 5.68 -25.66 4.36 -26 3 C-17.6375601 -4.37862344 -9.82438954 -4.13658507 0 0 Z " fill="#28405C" transform="translate(242,207)"/>
<path d="M0 0 C12.21 0 24.42 0 37 0 C37 0.66 37 1.32 37 2 C24.79 2 12.58 2 0 2 C0 1.34 0 0.68 0 0 Z " fill="#283C4D" transform="translate(249,205)"/>
<path d="M0 0 C0 0.66 0 1.32 0 2 C-8.58 2 -17.16 2 -26 2 C-26 3.98 -26 5.96 -26 8 C-26.33 8 -26.66 8 -27 8 C-27 5.69 -27 3.38 -27 1 C-17.95924544 -1.6877919 -9.2495643 -0.79404612 0 0 Z " fill="#2C3E53" transform="translate(75,205)"/>
<path d="M0 0 C0.99 0.495 0.99 0.495 2 1 C3.88472859 1.15344209 5.77427874 1.24959571 7.6640625 1.31640625 C9.34628906 1.37924805 9.34628906 1.37924805 11.0625 1.44335938 C12.238125 1.48267578 13.41375 1.52199219 14.625 1.5625 C16.40003906 1.62727539 16.40003906 1.62727539 18.2109375 1.69335938 C21.14050328 1.79967426 24.07015588 1.90170642 27 2 C27 2.66 27 3.32 27 4 C18.09 4 9.18 4 0 4 C0 2.68 0 1.36 0 0 Z " fill="#F6B951" transform="translate(365,253)"/>
<path d="M0 0 C0.99 0.33 1.98 0.66 3 1 C4.38671875 3.8359375 4.38671875 3.8359375 5.6875 7.375 C6.12449219 8.53773438 6.56148438 9.70046875 7.01171875 10.8984375 C8 14 8 14 8 17 C7.01 17 6.02 17 5 17 C3.02 11.72 1.04 6.44 -1 1 C-0.67 0.67 -0.34 0.34 0 0 Z " fill="#E7B863" transform="translate(308,206)"/>
<path d="M0 0 C0.66 0 1.32 0 2 0 C2.33 0.66 2.66 1.32 3 2 C8.94 2.33 14.88 2.66 21 3 C21 3.66 21 4.32 21 5 C14.07 5 7.14 5 0 5 C0 3.35 0 1.7 0 0 Z " fill="#F2B961" transform="translate(449,242)"/>
<path d="M0 0 C3 1 3 1 4.45703125 3.80078125 C4.90433594 4.95964844 5.35164063 6.11851562 5.8125 7.3125 C6.27269531 8.46363281 6.73289062 9.61476562 7.20703125 10.80078125 C8 14 8 14 7.13671875 16.41796875 C6.76160156 16.94003906 6.38648438 17.46210938 6 18 C4.99095625 15.7536764 3.9926398 13.50356063 3 11.25 C2.71382813 10.61578125 2.42765625 9.9815625 2.1328125 9.328125 C0.63993298 5.91582896 0 3.79218083 0 0 Z " fill="#EBBB69" transform="translate(297,206)"/>
<path d="M0 0 C0.99 0 1.98 0 3 0 C4.73990668 2.0742765 6.24507485 4.07884926 7.75 6.3125 C8.17410156 6.90740234 8.59820312 7.50230469 9.03515625 8.11523438 C10.234375 9.86328125 10.234375 9.86328125 12 13 C11.67 13.99 11.34 14.98 11 16 C6.50683005 11.90328622 3.02186027 7.28565938 0 2 C0 1.34 0 0.68 0 0 Z " fill="#2B435E" transform="translate(135,205)"/>
<path d="M0 0 C4.29 0 8.58 0 13 0 C14 3 14 3 13.0625 5.1875 C12.711875 5.785625 12.36125 6.38375 12 7 C11.67 5.68 11.34 4.36 11 3 C7.04 3 3.08 3 -1 3 C-0.67 2.01 -0.34 1.02 0 0 Z " fill="#364E67" transform="translate(250,214)"/>
<path d="M0 0 C4.29 0 8.58 0 13 0 C13.33 0.99 13.66 1.98 14 3 C9.71 3 5.42 3 1 3 C0.67 2.01 0.34 1.02 0 0 Z " fill="#3A516A" transform="translate(272,214)"/>
<path d="M0 0 C5.61 0.33 11.22 0.66 17 1 C17 1.66 17 2.32 17 3 C11.06 3 5.12 3 -1 3 C-0.67 2.01 -0.34 1.02 0 0 Z " fill="#3A546E" transform="translate(58,243)"/>
<path d="M0 0 C0.33 0.66 0.66 1.32 1 2 C4.63 2 8.26 2 12 2 C12 2.99 12 3.98 12 5 C8.37 5 4.74 5 1 5 C0.67 3.35 0.34 1.7 0 0 Z " fill="#364F6B" transform="translate(58,222)"/>
<path d="M0 0 C4.29 0 8.58 0 13 0 C12.67 0.99 12.34 1.98 12 3 C8.04 3 4.08 3 0 3 C0 2.01 0 1.02 0 0 Z " fill="#E5B563" transform="translate(374,235)"/>
<path d="M0 0 C0.33 0 0.66 0 1 0 C1.03758423 1.0058313 1.03758423 1.0058313 1.07592773 2.03198242 C1.19230801 5.0839959 1.31484348 8.13573258 1.4375 11.1875 C1.47681641 12.24259766 1.51613281 13.29769531 1.55664062 14.38476562 C1.59853516 15.40634766 1.64042969 16.42792969 1.68359375 17.48046875 C1.72025146 18.41785889 1.75690918 19.35524902 1.79467773 20.32104492 C1.99625599 22.95114982 2.42678321 25.42766414 3 28 C2.01 28 1.02 28 0 28 C-1.37365621 25.25268757 -1.0128639 23.18332936 -0.87890625 20.1171875 C-0.80639648 18.36728516 -0.80639648 18.36728516 -0.73242188 16.58203125 C-0.67634766 15.35871094 -0.62027344 14.13539063 -0.5625 12.875 C-0.48418945 11.02841797 -0.48418945 11.02841797 -0.40429688 9.14453125 C-0.2743256 6.09611412 -0.13934981 3.0480005 0 0 Z " fill="#2A435F" transform="translate(156,205)"/>
<path d="M0 0 C0.99 0 1.98 0 3 0 C2.33501617 4.38889325 0.81242323 7.9811485 -1 12 C-1.99 12 -2.98 12 -4 12 C-2.66666667 8 -1.33333333 4 0 0 Z " fill="#EDBD5E" transform="translate(356,206)"/>
<path d="M0 0 C0.99 0 1.98 0 3 0 C3.66 0.99 4.32 1.98 5 3 C5.66 3 6.32 3 7 3 C6.67 4.65 6.34 6.3 6 8 C5.01 8.33 4.02 8.66 3 9 C2.01 6.03 1.02 3.06 0 0 Z " fill="#EBB252" transform="translate(314,223)"/>
<path d="M0 0 C4.29 0 8.58 0 13 0 C12.67 0.99 12.34 1.98 12 3 C7.45194365 3.17835515 4.1205746 2.99785435 0 1 C0 0.67 0 0.34 0 0 Z " fill="#314F66" transform="translate(189,234)"/>
<path d="M0 0 C0.66 0 1.32 0 2 0 C5.57142857 7.28571429 5.57142857 7.28571429 4 12 C1.07034088 9.07034088 0.05866431 6.319947 -0.125 2.1875 C-0.08375 1.465625 -0.0425 0.74375 0 0 Z " fill="#ECB55D" transform="translate(304,222)"/>
<path d="M0 0 C0.66 0 1.32 0 2 0 C2.39253254 4.44870215 1.15305957 7.14243493 -1 11 C-1.66 10.01 -2.32 9.02 -3 8 C-1.55555556 1.55555556 -1.55555556 1.55555556 0 0 Z " fill="#ECBD68" transform="translate(346,206)"/>
<path d="M0 0 C0.66 0 1.32 0 2 0 C1.53199289 4.05606165 1.12046792 7.46588679 -1 11 C-1.66 10.67 -2.32 10.34 -3 10 C-3 9.34 -3 8.68 -3 8 C-2.34 8 -1.68 8 -1 8 C-1.020625 7.05125 -1.04125 6.1025 -1.0625 5.125 C-1 2 -1 2 0 0 Z " fill="#ECBB60" transform="translate(320,248)"/>
<path d="M0 0 C2.89932357 2.39509338 3.50168276 4.31245243 4 8 C3.01 8 2.02 8 1 8 C-0.42944945 5.64561267 -1.08661261 4.51967567 -0.625 1.75 C-0.41875 1.1725 -0.2125 0.595 0 0 Z " fill="#F4B54F" transform="translate(315,248)"/>
<path d="M0 0 C0.33 0.99 0.66 1.98 1 3 C-4.94 2.01 -4.94 2.01 -11 1 C-6.46780033 -1.26609984 -4.82227075 -0.92735976 0 0 Z " fill="#1C344D" transform="translate(241,206)"/>
<path d="M0 0 C0 0.99 0 1.98 0 3 C-5.94 2.01 -5.94 2.01 -12 1 C-12 0.67 -12 0.34 -12 0 C-7.6835078 -0.76173392 -4.25566547 -1.16063604 0 0 Z " fill="#2B3E58" transform="translate(240,216)"/>
<path d="M0 0 C0.66 0.33 1.32 0.66 2 1 C2 2.65 2 4.3 2 6 C1.236875 5.38125 0.47375 4.7625 -0.3125 4.125 C-2.99625809 1.94402948 -2.99625809 1.94402948 -6 0 C-3.4832097 -1.25839515 -2.62168527 -0.81927665 0 0 Z " fill="#233D5B" transform="translate(113,207)"/>
<path d="M0 0 C0.99 0.33 1.98 0.66 3 1 C1.68775452 4.93673644 0.08089673 7.22719294 -3 10 C-3 9.01 -3 8.02 -3 7 C-2.34 7 -1.68 7 -1 7 C-0.67 4.69 -0.34 2.38 0 0 Z " fill="#32455E" transform="translate(116,224)"/>
<path d="M0 0 C1.65 1.32 3.3 2.64 5 4 C4.67 4.99 4.34 5.98 4 7 C3.01 7 2.02 7 1 7 C0.67 4.69 0.34 2.38 0 0 Z " fill="#F4BB4A" transform="translate(334,223)"/>
<path d="M0 0 C0.66 0 1.32 0 2 0 C2.33 1.98 2.66 3.96 3 6 C1.68 6 0.36 6 -1 6 C-1.042721 4.33388095 -1.04063832 2.66617115 -1 1 C-0.67 0.67 -0.34 0.34 0 0 Z " fill="#F1B94F" transform="translate(327,206)"/>
<path d="M0 0 C0.66 0.99 1.32 1.98 2 3 C1.67 3.99 1.34 4.98 1 6 C0.01 6 -0.98 6 -2 6 C-2 4.35 -2 2.7 -2 1 C-1.34 0.67 -0.68 0.34 0 0 Z " fill="#F2C255" transform="translate(338,252)"/>
<path d="M0 0 C2.875 -0.125 2.875 -0.125 6 0 C6.66 0.66 7.32 1.32 8 2 C5.69 2.33 3.38 2.66 1 3 C0.67 2.01 0.34 1.02 0 0 Z " fill="#2C465D" transform="translate(99,224)"/>
<path d="M0 0 C2.50037734 2.17424117 3.43628586 3.73045798 4 7 C3.01 7.33 2.02 7.66 1 8 C-0.35439668 5.29120665 -0.06501451 2.99066732 0 0 Z " fill="#EFB25C" transform="translate(332,217)"/>
<path d="M0 0 C0.99 0.33 1.98 0.66 3 1 C3.33 2.98 3.66 4.96 4 7 C3.01 6.67 2.02 6.34 1 6 C-0.1875 3.4375 -0.1875 3.4375 -1 1 C-0.67 0.67 -0.34 0.34 0 0 Z " fill="#F1C373" transform="translate(308,206)"/>
<path d="M0 0 C0.66 0 1.32 0 2 0 C3.38232443 1.62626404 4.71937515 3.2925002 6 5 C4.02 5 2.04 5 0 5 C0 3.35 0 1.7 0 0 Z " fill="#F3BA4E" transform="translate(449,242)"/>
</svg>
