<?xml version="1.0" encoding="UTF-8"?>
<svg version="1.1" xmlns="http://www.w3.org/2000/svg" width="225" height="225">
<path d="M0 0 C74.25 0 148.5 0 225 0 C225 74.25 225 148.5 225 225 C150.75 225 76.5 225 0 225 C0 150.75 0 76.5 0 0 Z " fill="#026399" transform="translate(0,0)"/>
<path d="M0 0 C74.25 0 148.5 0 225 0 C225 74.25 225 148.5 225 225 C150.75 225 76.5 225 0 225 C0 150.75 0 76.5 0 0 Z M15.08673 20.29022312 C13.68627204 23.78228519 13.61931503 26.59214827 13.61231995 30.35643005 C13.60693441 31.08742466 13.60154887 31.81841926 13.59600013 32.57156521 C13.58171643 35.01590001 13.58882509 37.45969357 13.59594727 39.90405273 C13.5902439 41.65858393 13.58327977 43.41311142 13.57514954 45.16763306 C13.55719925 49.93003811 13.55839003 54.6922591 13.56409192 59.45468783 C13.56718107 63.43091188 13.56109436 67.40710044 13.55505317 71.38331944 C13.54100341 80.76379569 13.542573 90.14418088 13.55395508 99.5246582 C13.56543703 109.20126194 13.55136034 118.87758855 13.5245586 128.55415577 C13.50240582 136.86343095 13.49576327 145.17261911 13.50163502 153.48192173 C13.50500677 158.44414058 13.50257498 163.40618177 13.48538399 168.36837578 C13.46992367 173.03471366 13.47386022 177.70064083 13.49268913 182.36696243 C13.49637754 184.07859404 13.49325918 185.79025602 13.48280334 187.50185966 C13.46960839 189.84057559 13.48112617 192.1779288 13.49879456 194.5165863 C13.49900384 195.82456901 13.49921312 197.13255171 13.49942875 198.48017025 C14.23113529 203.62525688 16.27772498 206.60819895 20.29022312 209.85077 C23.7885434 211.33442522 26.55585799 211.38061753 30.35643005 211.38768005 C31.08742466 211.39306559 31.81841926 211.39845113 32.57156521 211.40399987 C35.01590001 211.41828357 37.45969357 211.41117491 39.90405273 211.40405273 C41.65858393 211.4097561 43.41311142 211.41672023 45.16763306 211.42485046 C49.93003811 211.44280075 54.6922591 211.44160997 59.45468783 211.43590808 C63.43091188 211.43281893 67.40710044 211.43890564 71.38331944 211.44494683 C80.76379569 211.45899659 90.14418088 211.457427 99.5246582 211.44604492 C109.20126194 211.43456297 118.87758855 211.44863966 128.55415577 211.4754414 C136.86343095 211.49759418 145.17261911 211.50423673 153.48192173 211.49836498 C158.44414058 211.49499323 163.40618177 211.49742502 168.36837578 211.51461601 C173.03471366 211.53007633 177.70064083 211.52613978 182.36696243 211.50731087 C184.07859404 211.50362246 185.79025602 211.50674082 187.50185966 211.51719666 C189.84057559 211.53039161 192.1779288 211.51887383 194.5165863 211.50120544 C195.82456901 211.50099616 197.13255171 211.50078688 198.48017025 211.50057125 C203.62437142 210.76899064 206.60648867 208.72228822 209.85077 204.71257019 C211.33881971 201.20027127 211.38063717 198.41402197 211.38768005 194.59887695 C211.39306559 193.86309323 211.39845113 193.12730951 211.40399987 192.36922932 C211.41828431 189.90874216 211.41117475 187.44879263 211.40405273 184.98828125 C211.40975601 183.22227547 211.41672011 181.45627337 211.42485046 179.6902771 C211.44280041 174.89694879 211.44161019 170.10380335 211.43590808 165.31045151 C211.43281929 161.30928 211.43890513 157.30814377 211.44494683 153.30697727 C211.45899609 143.86900972 211.45742704 134.43113268 211.44604492 124.99316406 C211.43455925 115.25405705 211.44864603 105.51522527 211.4754414 95.77615452 C211.49758474 87.41509084 211.50423898 79.05411365 211.49836498 70.69302273 C211.49499142 65.69897814 211.49743715 60.70511004 211.51461601 55.71109009 C211.53006163 51.01602891 211.52615619 46.32137623 211.50731087 41.62633133 C211.50361856 39.90299178 211.50675211 38.17962212 211.51719666 36.45631027 C211.53036478 34.10410802 211.51889773 31.75326649 211.50120544 29.40112305 C211.50099616 28.08484421 211.50078688 26.76856537 211.50057125 25.41239929 C210.90409415 21.34620883 209.96380746 19.8136429 207 17 C202.46606951 14.09172868 198.94202073 13.62236618 193.60597229 13.61231995 C192.88299593 13.60693441 192.16001958 13.60154887 191.41513485 13.59600013 C189.00387597 13.58174603 186.59316805 13.58881774 184.18188477 13.59594727 C182.44853272 13.59024236 180.71518442 13.58327763 178.98184204 13.57514954 C174.28140977 13.55721644 169.58116417 13.55838679 164.88070798 13.56409192 C160.95423443 13.56718352 157.02779675 13.56109164 153.10132831 13.55505317 C143.83729722 13.54100909 134.57335834 13.54256831 125.30932617 13.55395508 C115.75712025 13.56543672 106.20519509 13.55135958 96.65302616 13.5245586 C88.44647418 13.50239653 80.2400103 13.49576536 72.03343052 13.50163502 C67.13435101 13.50500451 62.23545147 13.50258994 57.33639717 13.48538399 C52.72913708 13.46990884 48.12229268 13.4738767 43.51504898 13.49268913 C41.82641237 13.49637342 40.13774492 13.4932712 38.44913673 13.48280334 C36.13928431 13.46958003 33.83080539 13.48115111 31.52101135 13.49879456 C30.22999795 13.49900384 28.93898455 13.49921312 27.60884953 13.49942875 C22.26252811 14.24099882 18.629362 16.04962053 15.08673 20.29022312 Z " fill="#F5F9FA" transform="translate(0,0)"/>
<path d="M0 0 C8.29931589 7.26587617 10.48500512 17.28608511 12.0390625 27.78515625 C12.12095932 29.72438908 12.15697919 31.66597719 12.15258789 33.60693359 C12.15247459 35.28799698 12.15247459 35.28799698 12.15235901 37.00302124 C12.14719772 38.19698517 12.14203644 39.3909491 12.13671875 40.62109375 C12.1353038 41.85558258 12.13388885 43.09007141 12.13243103 44.36196899 C12.12684522 48.294723 12.11429525 52.22741953 12.1015625 56.16015625 C12.09598162 58.83072833 12.09198308 61.50129988 12.08789062 64.171875 C12.07773245 70.70967523 12.05815408 77.2473516 12.0390625 83.78515625 C2.1390625 83.78515625 -7.7609375 83.78515625 -17.9609375 83.78515625 C-17.99832031 80.06363281 -18.03570312 76.34210938 -18.07421875 72.5078125 C-18.12049557 68.88364959 -18.17170699 65.25958744 -18.22338867 61.63549805 C-18.25654082 59.12644631 -18.28460264 56.61732173 -18.30737305 54.1081543 C-18.3410972 50.49105944 -18.39342377 46.87462623 -18.44921875 43.2578125 C-18.45560867 42.14495377 -18.4619986 41.03209503 -18.46858215 39.88551331 C-18.60905754 32.35991348 -19.24317724 25.37961336 -23.8984375 19.22265625 C-28.82555207 16.909929 -33.62339903 17.07637743 -38.9609375 17.78515625 C-44.07591539 20.11830406 -45.99992536 22.59164932 -47.9609375 27.78515625 C-48.43185695 32.06106817 -48.44964969 36.32229377 -48.47265625 40.62109375 C-48.49060745 41.85558258 -48.50855865 43.09007141 -48.52705383 44.36196899 C-48.58112181 48.29466362 -48.61504252 52.22723708 -48.6484375 56.16015625 C-48.67998215 58.83077507 -48.71610329 61.50130764 -48.75195312 64.171875 C-48.83931311 70.70965255 -48.89941576 77.24688038 -48.9609375 83.78515625 C-58.8609375 83.78515625 -68.7609375 83.78515625 -78.9609375 83.78515625 C-78.9609375 54.41515625 -78.9609375 25.04515625 -78.9609375 -5.21484375 C-69.0609375 -5.21484375 -59.1609375 -5.21484375 -48.9609375 -5.21484375 C-48.6309375 -1.91484375 -48.3009375 1.38515625 -47.9609375 4.78515625 C-46.9709375 3.71265625 -45.9809375 2.64015625 -44.9609375 1.53515625 C-32.6584584 -10.76732285 -13.6212052 -9.79475356 0 0 Z " fill="#F8FBFB" transform="translate(168.9609375,95.21484375)"/>
<path d="M0 0 C9.9 0 19.8 0 30 0 C30 29.37 30 58.74 30 89 C20.1 89 10.2 89 0 89 C0 59.63 0 30.26 0 0 Z " fill="#F7FBFC" transform="translate(44,90)"/>
<path d="M0 0 C4.14227384 2.88995849 6.9726597 5.35643476 8.359375 10.2421875 C9.00868697 14.51466025 9.1065147 17.87054353 7.0625 21.75 C4.0329515 25.73624803 1.46423143 28.28275619 -3.3125 29.875 C-8.55253023 30.37679253 -12.93956251 30.524025 -17.75 28.25 C-22.62500384 23.73170376 -24.56888274 20.559939 -24.875 13.875 C-24.73865961 10.08097596 -24.54326129 7.35440536 -22.1875 4.3125 C-15.35248596 -1.48240321 -8.54121485 -2.90078995 0 0 Z " fill="#F4F9FA" transform="translate(67.3125,48.125)"/>
<path d="M0 0 C0.33 0 0.66 0 1 0 C1.09342972 22.84388585 1.16397258 45.6877402 1.20724869 68.53177834 C1.22787638 79.13860078 1.25600101 89.74530452 1.30175781 100.35205078 C1.34161915 109.59659096 1.36743131 118.84104519 1.37635398 128.08566892 C1.3815699 132.98093327 1.39383362 137.87595169 1.42292023 142.77113724 C1.45007816 147.37908302 1.45844421 151.98668165 1.45243073 156.59469986 C1.45353079 158.28538398 1.4614825 159.97607975 1.4768219 161.66669464 C1.49675641 163.97716573 1.49192751 166.28633027 1.48101807 168.59683228 C1.48470524 169.88918604 1.48839241 171.1815398 1.49219131 172.5130558 C0.76851607 177.63995487 -1.29388026 180.62018086 -5.28896141 183.85119057 C-8.79469961 185.33675596 -11.56850656 185.3776667 -15.37661743 185.38095093 C-16.10972873 185.3856309 -16.84284003 185.39031087 -17.59816682 185.39513266 C-20.04951643 185.40707871 -22.5003066 185.3976273 -24.95166016 185.38818359 C-26.7110578 185.39224941 -28.47045289 185.39759134 -30.22984314 185.40411377 C-35.00445329 185.41779003 -39.77886898 185.41248796 -44.55348253 185.40297651 C-49.5475724 185.39538394 -54.54164557 185.40242419 -59.53573608 185.40713501 C-67.92033887 185.41259272 -76.30486237 185.40539948 -84.68945312 185.39111328 C-94.38993411 185.37477611 -104.09022604 185.38008296 -113.79070246 185.3965925 C-122.11521387 185.41019424 -130.43966829 185.41213378 -138.76418722 185.40427649 C-143.73801167 185.39959412 -148.71174717 185.39899082 -153.68556595 185.40888596 C-158.35922947 185.41753464 -163.03264845 185.41157227 -167.70628548 185.39420319 C-169.42401154 185.39022755 -171.1417581 185.39139072 -172.85947609 185.39799118 C-175.19904769 185.40615423 -177.537829 185.39594959 -179.87734985 185.38095093 C-181.18809793 185.37981985 -182.49884602 185.37868877 -183.84931374 185.37752342 C-187 185 -187 185 -188.94516563 183.47619057 C-189.46730865 182.74547624 -189.46730865 182.74547624 -190 182 C-188.83474667 182.16238096 -187.66949333 182.32476192 -186.46892929 182.49206352 C-182.46325071 182.99038596 -178.53723063 183.12577779 -174.49713135 183.12698364 C-173.78666365 183.12854363 -173.07619596 183.13010362 -172.34419894 183.13171089 C-169.98758224 183.13566738 -167.63103112 183.13255223 -165.27441406 183.12939453 C-163.57531192 183.1307509 -161.87621006 183.13253216 -160.17710876 183.13470459 C-155.58034572 183.13924949 -150.9836052 183.13750185 -146.38684177 183.1343255 C-141.57208255 183.13178834 -136.75732522 183.13414307 -131.94256592 183.13571167 C-123.862586 183.1375287 -115.78261524 183.13513855 -107.70263672 183.13037109 C-98.35946555 183.124922 -89.01631618 183.1266977 -79.67314553 183.1321975 C-71.6466593 183.13673312 -63.62017964 183.13737719 -55.59369254 183.13475883 C-50.80155565 183.13319949 -46.00942902 183.13299309 -41.21729279 183.13629532 C-36.71602925 183.13918079 -32.21479389 183.13718586 -27.7135334 183.13140106 C-26.06072346 183.13007742 -24.40791116 183.13046089 -22.75510216 183.13266373 C-20.50168063 183.13539054 -18.24834981 183.13197536 -15.99493408 183.12698364 C-14.10240843 183.1264181 -14.10240843 183.1264181 -12.17164993 183.12584114 C-8.48308581 183.01523977 -8.48308581 183.01523977 -5 182 C-4.67 181.01 -4.34 180.02 -4 179 C-3.34 179 -2.68 179 -2 179 C-0.82871726 175.28451581 -0.86122724 171.7533174 -0.84178162 167.87530518 C-0.83684364 167.15726581 -0.83190566 166.43922645 -0.82681805 165.69942832 C-0.81146007 163.29343629 -0.80308704 160.88747092 -0.79467773 158.48144531 C-0.78509787 156.75673692 -0.77508773 155.03203086 -0.76467896 153.30732727 C-0.73763553 148.62384419 -0.7166229 143.94035104 -0.69667697 139.25683308 C-0.67481397 134.36275203 -0.64742681 129.46870201 -0.62062073 124.574646 C-0.5706981 115.30643754 -0.52575766 106.03821185 -0.48259836 96.7699697 C-0.43322233 86.21866665 -0.37830555 75.66739472 -0.32291877 65.11612177 C-0.20910533 43.41077685 -0.10226487 21.7054022 0 0 Z " fill="#084974" transform="translate(210,26)"/>
<path d="M0 0 C0.66 0 1.32 0 2 0 C4.36000116 5.57818455 4.2653421 10.68175574 4.1875 16.625 C4.18105469 17.65302734 4.17460937 18.68105469 4.16796875 19.74023438 C4.04593916 32.49995346 3.53448507 45.25196256 3 58 C7.31278385 57.86188078 11.62513953 57.71321891 15.9375 57.5625 C17.16919922 57.52318359 18.40089844 57.48386719 19.66992188 57.44335938 C20.83974609 57.40146484 22.00957031 57.35957031 23.21484375 57.31640625 C24.29886475 57.27974854 25.38288574 57.24309082 26.49975586 57.20532227 C28.939263 57.27635735 28.939263 57.27635735 30 56 C30.12290718 54.34355634 30.17783908 52.68201007 30.20532227 51.02124023 C30.22526749 49.96021591 30.24521271 48.89919159 30.26576233 47.80601501 C30.28247482 46.651866 30.29918732 45.49771698 30.31640625 44.30859375 C30.33718735 43.13361832 30.35796844 41.95864288 30.37937927 40.74806213 C30.44500124 36.97793676 30.5038183 33.20773918 30.5625 29.4375 C30.6056732 26.88866427 30.64928708 24.33983597 30.69335938 21.79101562 C30.80069545 15.52742108 30.9024379 9.26375399 31 3 C31.33 3 31.66 3 32 3 C32 21.48 32 39.96 32 59 C22.1 59 12.2 59 2 59 C1.93941406 55.24367187 1.87882813 51.48734375 1.81640625 47.6171875 C1.75457221 43.97328772 1.69120299 40.32941765 1.62768555 36.68554688 C1.58441274 34.15595144 1.54273232 31.62632825 1.50268555 29.09667969 C1.44479755 25.45759723 1.38115637 21.81865354 1.31640625 18.1796875 C1.29969376 17.05134491 1.28298126 15.92300232 1.26576233 14.76046753 C1.24581711 13.69982086 1.22587189 12.63917419 1.20532227 11.54638672 C1.18977798 10.61817108 1.1742337 9.68995544 1.15821838 8.73361206 C0.98656095 5.76780739 0.53614371 2.92009993 0 0 Z " fill="#C6E5EF" transform="translate(149,120)"/>
<path d="M0 0 C4.32191985 0 6.80461109 1.23595789 9.875 4.125 C13.98441669 9.16588447 13.85418169 14.25013101 13.578125 20.54296875 C12.79969066 25.19779572 11.5925634 27.0361352 8 30 C7.01 29.34 6.02 28.68 5 28 C5.804375 27.195625 6.60875 26.39125 7.4375 25.5625 C10.63650774 21.69817156 11.3099982 17.9513602 11 13 C10.00059584 9.07052455 8.33315976 5.43577059 5 3 C2.40084462 1.80972016 2.40084462 1.80972016 0 1 C0 0.67 0 0.34 0 0 Z " fill="#175E83" transform="translate(64,47)"/>
<path d="M0 0 C0.66 0.33 1.32 0.66 2 1 C1.40832031 1.45890625 0.81664062 1.9178125 0.20703125 2.390625 C-3.88379822 5.56719079 -7.96818271 8.74853444 -12 12 C-12 8.37 -12 4.74 -12 1 C-11.01 1.99 -10.02 2.98 -9 4 C-6.25025113 3.81668341 -4.73114442 2.83356559 -2.375 1.375 C-1.59125 0.92125 -0.8075 0.4675 0 0 Z " fill="#165880" transform="translate(132,89)"/>
<path d="M0 0 C9.15224452 -0.46979202 17.65421223 0.02631838 25 6 C22 7 22 7 19.8125 6.0625 C19.214375 5.711875 18.61625 5.36125 18 5 C18 4.34 18 3.68 18 3 C17.01 3.33 16.02 3.66 15 4 C15 3.34 15 2.68 15 2 C10.05 1.67 5.1 1.34 0 1 C0 0.67 0 0.34 0 0 Z " fill="#D4EDF7" transform="translate(141,88)"/>
<path d="M0 0 C0.66 1.32 1.32 2.64 2 4 C1.01 4.33 0.02 4.66 -1 5 C-1.061875 5.78375 -1.12375 6.5675 -1.1875 7.375 C-1.5896875 8.674375 -1.5896875 8.674375 -2 10 C-4.5625 11.3125 -4.5625 11.3125 -7 12 C-7.66 11.34 -8.32 10.68 -9 10 C-8.071875 9.46375 -7.14375 8.9275 -6.1875 8.375 C-2.75983521 5.82105369 -1.5962315 3.90189922 0 0 Z " fill="#DDF1F7" transform="translate(211,200)"/>
<path d="M0 0 C2 1 2 1 3 3 C1.6696875 3.2784375 1.6696875 3.2784375 0.3125 3.5625 C-4.18818022 5.51562538 -5.41269699 7.89075404 -8 12 C-8.66 11.67 -9.32 11.34 -10 11 C-8.55218207 7.55571735 -6.72305391 5.63869038 -3.875 3.25 C-3.15054688 2.63640625 -2.42609375 2.0228125 -1.6796875 1.390625 C-0.84824219 0.70226562 -0.84824219 0.70226562 0 0 Z " fill="#DFF1F8" transform="translate(131,91)"/>
<path d="M0 0 C0.66 0 1.32 0 2 0 C2.39169887 2.66355234 2.40564529 4.39224373 0.88671875 6.66796875 C-0.36389317 8.1510888 -1.67864514 9.57954352 -3 11 C-3.99 10.34 -4.98 9.68 -6 9 C-4.73046875 7.53515625 -3.4609375 6.0703125 -2.19140625 4.60546875 C-0.79128769 2.89287029 -0.79128769 2.89287029 0 0 Z " fill="#1F6A90" transform="translate(75,66)"/>
<path d="M0 0 C1.32 0 2.64 0 4 0 C3.67 0.99 3.34 1.98 3 3 C2.401875 3.12375 1.80375 3.2475 1.1875 3.375 C-2.00104544 4.28601298 -3.11621701 6.37615941 -5 9 C-5.33 8.01 -5.66 7.02 -6 6 C-4 4 -2 2 0 0 Z " fill="#1B6388" transform="translate(21,15)"/>
<path d="M0 0 C2.00720923 0.28674418 4.0085944 0.61866701 6 1 C3.59078295 3.40921705 1.05665491 4.53812156 -2 6 C-1.125 1.125 -1.125 1.125 0 0 Z " fill="#DBEDF3" transform="translate(20,12)"/>
<path d="M0 0 C0.33 0 0.66 0 1 0 C1 2.64 1 5.28 1 8 C0.01 8 -0.98 8 -2 8 C-1.125 1.125 -1.125 1.125 0 0 Z " fill="#20688D" transform="translate(122,119)"/>
<path d="M0 0 C4.8 3.44615385 4.8 3.44615385 5.8125 6.25 C5.874375 6.8275 5.93625 7.405 6 8 C5.01 7.67 4.02 7.34 3 7 C3 6.34 3 5.68 3 5 C2.34 5 1.68 5 1 5 C0.67 3.35 0.34 1.7 0 0 Z " fill="#D3EEF5" transform="translate(69,50)"/>
<path d="M0 0 C0.99 0.33 1.98 0.66 3 1 C3.33 3.31 3.66 5.62 4 8 C0 3.375 0 3.375 0 0 Z " fill="#E5F7FA" transform="translate(208,16)"/>
<path d="M0 0 C1.32 0 2.64 0 4 0 C5.8125 1.8125 5.8125 1.8125 7 4 C6.67 4.99 6.34 5.98 6 7 C1.125 2.25 1.125 2.25 0 0 Z " fill="#1F6489" transform="translate(167,94)"/>
</svg>
